<svg id="vuesax_bulk_user-add" data-name="vuesax/bulk/user-add" xmlns="http://www.w3.org/2000/svg" width="28.631" height="28.631" viewBox="0 0 28.631 28.631">
  <g id="user-add">
    <path id="Vector" d="M0,0H28.631V28.631H0Z" fill="none" opacity="0"/>
    <path id="Vector-2" data-name="Vector" d="M21.688,8.947a.591.591,0,0,1-.6.6H.6a.591.591,0,0,1-.6-.6C0,4.008,4.867,0,10.844,0a12.542,12.542,0,0,1,3.519.489,4.8,4.8,0,0,0-1.133,3.09,4.677,4.677,0,0,0,.692,2.457,4.394,4.394,0,0,0,.907,1.086A4.677,4.677,0,0,0,18,8.351a4.727,4.727,0,0,0,3.4-1.432A7.122,7.122,0,0,1,21.688,8.947Z" transform="translate(3.471 16.701)" fill="#fff" opacity="0.4"/>
    <path id="Vector-3" data-name="Vector" d="M8.315,1.587A4.705,4.705,0,0,0,4.772,0,4.764,4.764,0,0,0,0,4.772,4.677,4.677,0,0,0,.692,7.229,4.394,4.394,0,0,0,1.6,8.315,4.677,4.677,0,0,0,4.772,9.544a4.736,4.736,0,0,0,4.08-2.314A4.455,4.455,0,0,0,9.4,5.881a4.287,4.287,0,0,0,.143-1.109A4.753,4.753,0,0,0,8.315,1.587ZM6.561,5.643H5.667v.931a.895.895,0,0,1-1.789,0V5.643H2.982a.895.895,0,1,1,0-1.789h.895V3.006a.895.895,0,1,1,1.789,0v.847h.895a.895.895,0,1,1,0,1.789Z" transform="translate(16.701 15.508)" fill="#fff"/>
    <path id="Vector-4" data-name="Vector" d="M11.93,5.965A5.965,5.965,0,1,1,5.965,0,5.965,5.965,0,0,1,11.93,5.965Z" transform="translate(8.351 2.386)" fill="#fff"/>
  </g>
</svg>
