<svg id="vuesax_bulk_flash-circle" data-name="vuesax/bulk/flash-circle" xmlns="http://www.w3.org/2000/svg" width="27.742" height="27.742" viewBox="0 0 27.742 27.742">
  <g id="flash-circle">
    <path id="Vector" d="M23.118,11.559A11.559,11.559,0,1,1,11.559,0,11.559,11.559,0,0,1,23.118,11.559Z" transform="translate(2.277 2.312)" fill="#fff" opacity="0.4"/>
    <path id="Vector-2" data-name="Vector" d="M8.379,5.543H6.414V.966C6.414-.1,5.836-.318,5.131.48l-.509.578-4.3,4.89c-.59.67-.347,1.214.543,1.214H2.83v4.577c0,1.063.578,1.283,1.283.485l.509-.578,4.3-4.89C9.512,6.086,9.269,5.543,8.379,5.543Z" transform="translate(9.249 7.519)" fill="#fff"/>
    <path id="Vector-3" data-name="Vector" d="M0,0H27.742V27.742H0Z" fill="none" opacity="0"/>
  </g>
</svg>
