<svg id="calendar_linear" data-name="calendar/linear" xmlns="http://www.w3.org/2000/svg" width="31.5" height="31.5" viewBox="0 0 31.5 31.5">
  <g id="vuesax_linear_calendar" data-name="vuesax/linear/calendar">
    <g id="calendar">
      <path id="Vector" d="M0,0V3" transform="translate(10.5 2)" fill="none" stroke="#fff" stroke-linecap="round" stroke-linejoin="round" stroke-width="1"/>
      <path id="Vector-2" data-name="Vector" d="M0,0V3" transform="translate(21 2)" fill="none" stroke="#fff" stroke-linecap="round" stroke-linejoin="round" stroke-width="1"/>
      <path id="Vector-3" data-name="Vector" d="M0,0H24.5" transform="translate(3.5 11.931)" fill="none" stroke="#fff" stroke-linecap="round" stroke-linejoin="round" stroke-width="1"/>
      <path id="Vector-4" data-name="Vector" d="M25.5,7.027V18.973C25.5,23.189,23.375,26,18.417,26H7.083C2.125,26,0,23.189,0,18.973V7.027C0,2.811,2.125,0,7.083,0H18.417C23.375,0,25.5,2.811,25.5,7.027Z" transform="translate(3 3.5)" fill="none" stroke="#fff" stroke-linecap="round" stroke-linejoin="round" stroke-width="1"/>
      <path id="Vector-5" data-name="Vector" d="M0,0H31.5V31.5H0Z" fill="none" opacity="0"/>
      <path id="Vector-6" data-name="Vector" d="M.495.5H.5" transform="translate(20.107 17.481)" fill="none" stroke="#fff" stroke-linecap="round" stroke-linejoin="round" stroke-width="1"/>
      <path id="Vector-7" data-name="Vector" d="M.495.5H.5" transform="translate(20.107 21.419)" fill="none" stroke="#fff" stroke-linecap="round" stroke-linejoin="round" stroke-width="1"/>
      <path id="Vector-8" data-name="Vector" d="M.495.5H.5" transform="translate(15.251 17.481)" fill="none" stroke="#fff" stroke-linecap="round" stroke-linejoin="round" stroke-width="1"/>
      <path id="Vector-9" data-name="Vector" d="M.495.5H.5" transform="translate(15.251 21.419)" fill="none" stroke="#fff" stroke-linecap="round" stroke-linejoin="round" stroke-width="1"/>
      <path id="Vector-10" data-name="Vector" d="M.495.5H.5" transform="translate(10.393 17.481)" fill="none" stroke="#fff" stroke-linecap="round" stroke-linejoin="round" stroke-width="1"/>
      <path id="Vector-11" data-name="Vector" d="M.495.5H.5" transform="translate(10.393 21.419)" fill="none" stroke="#fff" stroke-linecap="round" stroke-linejoin="round" stroke-width="1"/>
    </g>
  </g>
</svg>
