<svg id="Component_1169_1" data-name="Component 1169 – 1" xmlns="http://www.w3.org/2000/svg" xmlns:xlink="http://www.w3.org/1999/xlink" width="39.25" height="38.409" viewBox="0 0 39.25 38.409">
  <defs>
    <clipPath id="clip-path">
      <rect id="Rectangle_1225" data-name="Rectangle 1225" width="21.311" height="20.369" fill="#00b468"/>
    </clipPath>
  </defs>
  <g id="Component_288_57" data-name="Component 288 – 57">
    <path id="Path_6781" data-name="Path 6781" d="M19.625,0A19.418,19.418,0,0,1,39.25,19.2a19.418,19.418,0,0,1-19.625,19.2A19.418,19.418,0,0,1,0,19.2,19.418,19.418,0,0,1,19.625,0Z" fill="#f5f6f7"/>
  </g>
  <g id="receipt-edit_bulk" data-name="receipt-edit/bulk" transform="translate(7.999 8)">
    <g id="vuesax_bulk_receipt-edit" data-name="vuesax/bulk/receipt-edit">
      <g id="receipt-edit">
        <path id="Vector" d="M0,0H23.08V22.586H0Z" fill="#fff" opacity="0"/>
        <g id="Group_13149" data-name="Group 13149" transform="translate(0.884 1)" clip-path="url(#clip-path)">
          <path id="Path_7811" data-name="Path 7811" d="M21.311,2.181v16c-.107.348-.357.409-.692.408-2.652-.011-5.3-.006-7.956-.006-.275,0-.283.009-.284.279,0,.354,0,.708,0,1.062a.413.413,0,0,1-.5.439q-1.365-.207-2.729-.42c-1.395-.217-2.789-.439-4.184-.653C3.474,19.06,1.981,18.837.49,18.61c-.19-.029-.377-.083-.44-.294A1.315,1.315,0,0,1,0,17.947q0-7.31,0-14.621c0-.056,0-.111,0-.167a.461.461,0,0,1,.421-.508q1.568-.366,3.137-.727L11.84.015a.408.408,0,0,1,.538.425c0,.34,0,.68,0,1.02,0,.32,0,.321.324.321,2.638,0,5.276.005,7.914-.006.336,0,.585.06.694.405M6.2,9.276l-.47-.75q-.651-1.041-1.3-2.083a.5.5,0,0,0-.524-.3.479.479,0,0,0-.3.784q.951,1.528,1.911,3.051a.3.3,0,0,1,.008.391c-.2.291-.377.6-.565.9-.438.7-.883,1.4-1.308,2.1a.88.88,0,0,0-.12.482.385.385,0,0,0,.346.34.508.508,0,0,0,.557-.271c.555-.9,1.116-1.789,1.675-2.683.027-.044.059-.084.1-.142l.861,1.376c.313.5.623,1,.94,1.5a.459.459,0,0,0,.539.218.413.413,0,0,0,.342-.4.831.831,0,0,0-.132-.422q-.921-1.5-1.863-2.983a.326.326,0,0,1,0-.409C7.532,8.968,8.166,7.949,8.8,6.93a.484.484,0,1,0-.813-.509c-.145.229-.287.459-.43.688L6.2,9.276m12-4.828c.659,0,1.318-.006,1.977,0,.2,0,.286-.045.278-.265-.016-.457-.011-.916,0-1.373,0-.17-.054-.233-.226-.233q-2.029.006-4.058,0c-.178,0-.223.069-.22.235.009.465.014.93,0,1.394-.007.2.075.243.254.242.666-.007,1.332,0,2,0m0,2.666c.673,0,1.346,0,2.019,0,.166,0,.235-.048.232-.225q-.014-.707,0-1.415c0-.175-.062-.23-.23-.229q-2.029.006-4.058,0c-.158,0-.22.048-.217.217.01.471.011.944,0,1.415,0,.183.053.241.236.239.673-.009,1.346,0,2.019,0m-.016,2.666c.68,0,1.36,0,2.04,0,.132,0,.229-.013.226-.186-.007-.5-.005-1,0-1.5,0-.14-.066-.181-.191-.181q-2.06,0-4.121,0c-.144,0-.192.057-.19.2.006.479.011.958,0,1.436,0,.189.064.236.241.234.666-.008,1.332,0,2,0m.015.8c-.666,0-1.332,0-2,0-.176,0-.263.035-.257.241.015.471.012.943,0,1.415,0,.17.06.214.218.213q2.029-.006,4.058,0c.17,0,.232-.055.229-.228-.009-.465-.012-.93,0-1.394.006-.2-.072-.25-.255-.248-.666.007-1.332,0-2,0m-.016,4.531c.68,0,1.36,0,2.04,0,.131,0,.229-.012.227-.186-.007-.5-.005-1,0-1.5,0-.139-.064-.182-.19-.182q-2.06,0-4.121,0c-.143,0-.193.055-.191.2.007.479.011.958,0,1.436,0,.188.062.237.24.235.666-.008,1.332,0,2,0m.017,2.666c.673,0,1.346,0,2.019,0,.166,0,.235-.048.232-.225q-.014-.707,0-1.415c0-.175-.062-.23-.23-.229q-2.029.006-4.058,0c-.158,0-.22.048-.217.217.01.472.011.944,0,1.415,0,.183.053.241.236.239.673-.009,1.346,0,2.019,0M13.756,4.447c.388,0,.776,0,1.164,0,.152,0,.207-.055.205-.208q-.01-.727,0-1.455c0-.157-.064-.206-.21-.2q-1.164,0-2.328,0c-.15,0-.211.058-.21.209,0,.478.007.956,0,1.434,0,.176.07.228.236.225.381-.008.762,0,1.143,0m0,.8c-.381,0-.762,0-1.143,0-.165,0-.239.051-.236.226q.011.707,0,1.413c0,.171.061.231.231.23q1.143-.009,2.286,0c.166,0,.235-.047.232-.225q-.014-.706,0-1.413c0-.171-.056-.235-.227-.232-.381.008-.762,0-1.143,0m0,2.666c-.381,0-.762,0-1.143,0-.165,0-.239.051-.236.227q.011.707,0,1.413c0,.171.061.231.232.23q1.143-.009,2.287,0c.166,0,.235-.048.231-.225q-.014-.706,0-1.413c0-.171-.056-.235-.227-.231-.381.008-.762,0-1.143,0m-.005,4.531c.381,0,.762-.005,1.143,0,.165,0,.236-.045.233-.224-.01-.471-.009-.942,0-1.413,0-.17-.054-.234-.226-.233q-1.143.008-2.286,0c-.164,0-.24.049-.237.225q.012.707,0,1.413c0,.17.059.235.23.231.381-.008.762,0,1.143,0m.006,2.666c.388,0,.776,0,1.164,0,.152,0,.207-.055.205-.208q-.01-.727,0-1.455c0-.158-.064-.205-.21-.2q-1.164,0-2.328,0c-.15,0-.211.058-.21.21,0,.478.007.956,0,1.434,0,.176.071.228.236.225.381-.008.762,0,1.143,0m.015.8c-.395,0-.79,0-1.185,0-.15,0-.211.059-.209.21q.007.728,0,1.455c0,.156.068.2.215.2q1.164-.006,2.328,0c.153,0,.207-.056.2-.208-.007-.478-.009-.956,0-1.434,0-.178-.068-.229-.232-.226-.374.007-.748,0-1.122,0" transform="translate(0 0.001)" fill="#00b468"/>
        </g>
      </g>
    </g>
  </g>
</svg>
