<svg id="vuesax_bulk_document-filter" data-name="vuesax/bulk/document-filter" xmlns="http://www.w3.org/2000/svg" width="22.346" height="21.295" viewBox="0 0 22.346 21.295">
  <g id="document-filter">
    <path id="Vector" d="M0,0H22.346V21.295H0Z" transform="translate(22.346 21.295) rotate(180)" fill="none" opacity="0"/>
    <path id="Vector-2" data-name="Vector" d="M1.145,0h7.57A1.154,1.154,0,0,1,9.86,1.164V2.439a2.156,2.156,0,0,1-.577,1.331L6.815,5.978a1.906,1.906,0,0,0-.577,1.331V9.8a1.328,1.328,0,0,1-.512.987l-.8.521a1.168,1.168,0,0,1-1.778-.987V7.244a2.292,2.292,0,0,0-.456-1.22L.512,3.7A1.908,1.908,0,0,1,0,2.533V1.2A1.163,1.163,0,0,1,1.145,0Z" transform="translate(1.862 0.931)" fill="#5c7eef"/>
    <path id="Vector-3" data-name="Vector" d="M13.966,0H11.731a.449.449,0,0,0-.466.439v.984a3.258,3.258,0,0,1-.978,2.188L7.756,5.746c-.028.061-.075.149-.1.22V8.381a2.521,2.521,0,0,1-1.192,2.065l-.763.466a2.685,2.685,0,0,1-1.378.378,2.722,2.722,0,0,1-1.248-.307,2.43,2.43,0,0,1-1.21-1.432V7.213a.4.4,0,0,0-.14-.307L.791,6.027A.468.468,0,0,0,0,6.334v6.844A4.531,4.531,0,0,0,4.655,17.57h9.311a4.531,4.531,0,0,0,4.655-4.393V4.393A4.531,4.531,0,0,0,13.966,0Z" transform="translate(1.862 1.862)" fill="#5c7eef" opacity="0.4"/>
    <g id="Group" transform="translate(11.406 10.833)">
      <path id="Vector-4" data-name="Vector" d="M5.354,1.4H.7A.7.7,0,0,1,0,.7.7.7,0,0,1,.7,0H5.354a.7.7,0,0,1,.7.7A.7.7,0,0,1,5.354,1.4Z" fill="#5c7eef"/>
    </g>
    <g id="Group-2" data-name="Group" transform="translate(9.544 14.371)">
      <path id="Vector-5" data-name="Vector" d="M7.216,1.4H.7A.7.7,0,0,1,0,.7.7.7,0,0,1,.7,0H7.216a.7.7,0,0,1,.7.7A.7.7,0,0,1,7.216,1.4Z" fill="#5c7eef"/>
    </g>
  </g>
</svg>
