<svg id="vuesax_bulk_flash" data-name="vuesax/bulk/flash" xmlns="http://www.w3.org/2000/svg" width="24" height="24" viewBox="0 0 24 24">
  <g id="flash">
    <path id="Vector" d="M0,0H24V24H0Z" fill="none" opacity="0"/>
    <path id="Vector-2" data-name="Vector" d="M1.156,10.914h3.09v7.2a1.154,1.154,0,0,0,2.02.76l7.57-8.6a1.155,1.155,0,0,0-.87-1.92H9.876v-7.2a1.154,1.154,0,0,0-2.02-.76l-7.57,8.6A1.159,1.159,0,0,0,1.156,10.914Z" transform="translate(8.164 2.366)" fill="#18D497"/>
    <g id="Group">
      <path id="Vector-3" data-name="Vector" d="M7.75,1.5h-7A.755.755,0,0,1,0,.75.755.755,0,0,1,.75,0h7A.755.755,0,0,1,8.5.75.755.755,0,0,1,7.75,1.5Z" transform="translate(0.75 3.25)" fill="#18D497" opacity="0.4"/>
    </g>
    <g id="Group-2" data-name="Group">
      <path id="Vector-4" data-name="Vector" d="M6.75,1.5h-6A.755.755,0,0,1,0,.75.755.755,0,0,1,.75,0h6A.755.755,0,0,1,7.5.75.755.755,0,0,1,6.75,1.5Z" transform="translate(0.75 19.25)" fill="#18D497" opacity="0.4"/>
    </g>
    <g id="Group-3" data-name="Group">
      <path id="Vector-5" data-name="Vector" d="M3.75,1.5h-3A.755.755,0,0,1,0,.75.755.755,0,0,1,.75,0h3A.755.755,0,0,1,4.5.75.755.755,0,0,1,3.75,1.5Z" transform="translate(0.75 11.25)" fill="#18D497" opacity="0.4"/>
    </g>
  </g>
</svg>
