<svg xmlns="http://www.w3.org/2000/svg" width="28" height="28" viewBox="0 0 28 28">
  <g id="Group_458142" data-name="Group 458142" transform="translate(-102 -11)">
    <circle id="Ellipse_631" data-name="Ellipse 631" cx="14" cy="14" r="14" transform="translate(102 11)" fill="#edeef2"/>
    <g id="image_black_24dp" transform="translate(106.305 15.303)">
      <path id="Path_9670" data-name="Path 9670" d="M0,0H19.394V19.394H0Z" fill="none"/>
      <path id="Path_9671" data-name="Path 9671" d="M15.06,13.72V4.34A1.344,1.344,0,0,0,13.72,3H4.34A1.344,1.344,0,0,0,3,4.34v9.38a1.344,1.344,0,0,0,1.34,1.34h9.38A1.344,1.344,0,0,0,15.06,13.72ZM6.685,10.035,8.36,12.052,10.7,9.03l3.015,4.02H4.34Z" transform="translate(0.667 0.667)" fill="#8d98a9"/>
    </g>
  </g>
</svg>
