<svg width="150" height="28" viewBox="0 0 150 28" fill="none" xmlns="http://www.w3.org/2000/svg">
<g clip-path="url(#clip0_140_14794)">
<path d="M5.80859 27.4784C4.3237 27.4687 2.89969 26.887 1.8326 25.8544C0.979382 25.0691 0.387091 24.0413 0.135377 22.9093C-0.116337 21.7773 -0.0154075 20.5954 0.424592 19.5224L0.449593 19.4634L7.03059 5.18342C7.37608 4.37082 7.91843 3.657 8.60872 3.10638C9.29901 2.55575 10.1155 2.18563 10.9846 2.02943C11.9301 1.86201 12.9026 1.93419 13.813 2.23936C14.7235 2.54454 15.543 3.07299 16.1966 3.77643L24.6216 12.6764C24.7837 12.8442 24.9109 13.0425 24.9959 13.2598C25.0809 13.4771 25.1219 13.7091 25.1167 13.9423C25.1114 14.1756 25.06 14.4055 24.9653 14.6188C24.8707 14.832 24.7347 15.0244 24.5652 15.1847C24.3957 15.3451 24.1961 15.4702 23.978 15.553C23.7598 15.6357 23.5274 15.6744 23.2942 15.6667C23.061 15.6591 22.8317 15.6052 22.6194 15.5084C22.4071 15.4115 22.2162 15.2735 22.0576 15.1024L13.6326 6.20243C13.382 5.92715 13.0666 5.7189 12.715 5.59664C12.3635 5.47438 11.9869 5.442 11.6196 5.50242C11.322 5.55143 11.0419 5.676 10.8063 5.86423C10.5706 6.05245 10.3872 6.29802 10.2736 6.57743L10.2486 6.63643L3.67159 20.9114C3.51664 21.3224 3.49048 21.7708 3.59659 22.197C3.7027 22.6232 3.93604 23.0071 4.2656 23.2974C4.56905 23.6101 4.96139 23.8218 5.38934 23.9037C5.81729 23.9857 6.2601 23.9339 6.65759 23.7554L10.9266 21.7144C11.1357 21.6144 11.3625 21.5566 11.594 21.5442C11.8255 21.5319 12.0571 21.5652 12.2757 21.6424C12.4943 21.7196 12.6955 21.839 12.868 21.994C13.0404 22.1489 13.1806 22.3363 13.2806 22.5454C13.3806 22.7546 13.4384 22.9813 13.4508 23.2128C13.4631 23.4443 13.4298 23.6759 13.3526 23.8945C13.2755 24.1131 13.156 24.3144 13.0011 24.4868C12.8461 24.6592 12.6587 24.7994 12.4496 24.8994L8.1806 26.9404C7.44019 27.2951 6.62957 27.479 5.80859 27.4784Z" fill="url(#paint0_linear_140_14794)"/>
<path d="M23.8074 26.6827C23.019 26.6783 22.2398 26.5129 21.5176 26.1967C20.7954 25.8805 20.1454 25.4201 19.6074 24.8438L11.1834 15.9437C10.8673 15.6027 10.6986 15.1508 10.7138 14.6861C10.7291 14.2214 10.9271 13.7815 11.2648 13.4619C11.6026 13.1424 12.0527 12.969 12.5176 12.9794C12.9824 12.9899 13.4243 13.1833 13.7474 13.5177L22.1724 22.4177C22.4228 22.6932 22.7382 22.9015 23.0898 23.0238C23.4415 23.1461 23.8181 23.1784 24.1854 23.1178C24.4829 23.0687 24.7629 22.944 24.9986 22.7558C25.2343 22.5676 25.4177 22.3221 25.5314 22.0427L32.1314 6.54275C32.291 6.13065 32.3203 5.67946 32.2151 5.25021C32.1099 4.82096 31.8754 4.43437 31.5434 4.14275C31.2399 3.83006 30.8476 3.61836 30.4196 3.53642C29.9917 3.45448 29.5489 3.50627 29.1514 3.68475L24.8824 5.72575C24.6732 5.82575 24.4465 5.88358 24.215 5.89594C23.9835 5.9083 23.7519 5.87494 23.5333 5.79778C23.3147 5.72061 23.1134 5.60115 22.941 5.44621C22.7686 5.29126 22.6284 5.10388 22.5284 4.89475C22.4284 4.68562 22.3705 4.45884 22.3582 4.22736C22.3458 3.99588 22.3792 3.76424 22.4563 3.54565C22.5335 3.32706 22.653 3.12581 22.8079 2.95339C22.9629 2.78097 23.1502 2.64075 23.3594 2.54075L27.6274 0.499749C28.6784 0.0327205 29.8445 -0.111308 30.9775 0.0859651C32.1105 0.283238 33.1594 0.812906 33.9907 1.60766C34.822 2.40241 35.3982 3.42637 35.6462 4.5494C35.8942 5.67243 35.8027 6.84384 35.3834 7.91475L28.7834 23.4147C28.4403 24.2329 27.8978 24.9521 27.2054 25.5067C26.513 26.0613 25.6927 26.4336 24.8194 26.5898C24.4855 26.6513 24.1468 26.6824 23.8074 26.6827Z" fill="url(#paint1_linear_140_14794)"/>
<path d="M41.3145 0V26.899" stroke="#E2E7F1"/>
<path d="M52.5306 21.0195V8.6889H59.9466V10.2743H54.2569V13.9382H59.383V15.4884H54.2569V19.4342H59.9819V21.0195H52.5306ZM68.2755 21.2309C67.0776 21.2309 66.0148 20.9608 65.0871 20.4206C64.1594 19.8804 63.4313 19.1288 62.9028 18.1659C62.3861 17.2029 62.1278 16.099 62.1278 14.8542C62.1278 13.6094 62.3861 12.5114 62.9028 11.5602C63.4313 10.5972 64.1535 9.84563 65.0695 9.30543C65.9855 8.75349 67.0424 8.47752 68.2402 8.47752C69.4381 8.47752 70.495 8.75349 71.411 9.30543C72.3269 9.84563 73.0433 10.5972 73.56 11.5602C74.0767 12.5114 74.3351 13.6094 74.3351 14.8542C74.3351 16.099 74.0767 17.2029 73.56 18.1659C73.0433 19.1288 72.3269 19.8804 71.411 20.4206C70.5067 20.9608 69.4615 21.2309 68.2755 21.2309ZM68.2755 19.6455C69.121 19.6455 69.8667 19.44 70.5126 19.029C71.1585 18.618 71.6634 18.0543 72.0275 17.338C72.3915 16.6216 72.5736 15.7937 72.5736 14.8542C72.5736 13.9265 72.3857 13.1044 72.0099 12.3881C71.6458 11.66 71.135 11.0904 70.4774 10.6794C69.8315 10.2684 69.0858 10.0629 68.2402 10.0629C67.3947 10.0629 66.6431 10.2684 65.9855 10.6794C65.3278 11.0904 64.8111 11.66 64.4353 12.3881C64.0713 13.1044 63.8893 13.9265 63.8893 14.8542C63.8893 15.7937 64.0772 16.6216 64.453 17.338C64.8288 18.0543 65.3455 18.618 66.0031 19.029C66.6725 19.44 67.4299 19.6455 68.2755 19.6455ZM76.6655 21.0195V8.6889H80.8227C81.6447 8.6889 82.367 8.85331 82.9894 9.18212C83.6235 9.4992 84.1167 9.94545 84.469 10.5209C84.8331 11.0846 85.0151 11.7422 85.0151 12.4938C85.0151 13.2336 84.8213 13.8913 84.4338 14.4667C84.058 15.0421 83.5413 15.4942 82.8837 15.8231C82.226 16.1401 81.4862 16.2987 80.6642 16.2987H78.3918V21.0195H76.6655ZM83.5531 21.0195L80.6289 15.9816L82.0029 15.0656L85.5083 21.0195H83.5531ZM78.3918 14.7133H80.9812C81.404 14.7133 81.7798 14.6193 82.1086 14.4315C82.4492 14.2318 82.7193 13.9676 82.9189 13.6388C83.1303 13.2982 83.236 12.9165 83.236 12.4938C83.236 11.8361 83.007 11.3018 82.549 10.8908C82.091 10.4798 81.4979 10.2743 80.7699 10.2743H78.3918V14.7133ZM97.3281 21.2309C96.1538 21.2309 95.1086 20.9608 94.1926 20.4206C93.2766 19.8687 92.5603 19.1171 92.0436 18.1659C91.5269 17.2029 91.2685 16.099 91.2685 14.8542C91.2685 13.6094 91.5269 12.5114 92.0436 11.5602C92.5603 10.5972 93.2708 9.84563 94.175 9.30543C95.0793 8.75349 96.1186 8.47752 97.2929 8.47752C98.0562 8.47752 98.7843 8.61844 99.4772 8.90028C100.17 9.17038 100.787 9.55204 101.327 10.0453C101.879 10.5268 102.301 11.0904 102.595 11.7363L101.045 12.4409C100.822 11.9595 100.516 11.5426 100.129 11.1903C99.7414 10.838 99.301 10.562 98.8078 10.3623C98.3263 10.1627 97.8214 10.0629 97.2929 10.0629C96.4709 10.0629 95.7369 10.2684 95.091 10.6794C94.4451 11.0904 93.9401 11.6541 93.5761 12.3705C93.2121 13.0868 93.03 13.9147 93.03 14.8542C93.03 15.7937 93.2121 16.6275 93.5761 17.3556C93.9519 18.0837 94.4627 18.6532 95.1086 19.0642C95.7663 19.4635 96.512 19.6632 97.3457 19.6632C97.8859 19.6632 98.3968 19.5575 98.8783 19.3461C99.3598 19.123 99.7884 18.8235 100.164 18.4477C100.552 18.0602 100.863 17.6198 101.098 17.1266L102.648 17.8136C102.354 18.4829 101.937 19.076 101.397 19.5927C100.857 20.1094 100.235 20.5146 99.53 20.8081C98.8372 21.09 98.1032 21.2309 97.3281 21.2309ZM108.279 21.2309C107.422 21.2309 106.664 21.0371 106.007 20.6496C105.349 20.2503 104.832 19.7043 104.457 19.0114C104.081 18.3185 103.893 17.52 103.893 16.6157C103.893 15.7115 104.081 14.9129 104.457 14.2201C104.832 13.5272 105.349 12.987 106.007 12.5995C106.676 12.2002 107.439 12.0006 108.297 12.0006C109.107 12.0006 109.818 12.2061 110.428 12.6171C111.039 13.0164 111.514 13.5918 111.855 14.3434C112.207 15.0832 112.383 15.9581 112.383 16.968H105.267L105.584 16.7038C105.584 17.3262 105.707 17.8664 105.954 18.3244C106.201 18.7824 106.535 19.1347 106.958 19.3813C107.381 19.6162 107.862 19.7336 108.402 19.7336C108.99 19.7336 109.477 19.5986 109.865 19.3285C110.264 19.0466 110.575 18.6943 110.798 18.2716L112.243 18.9409C112.008 19.3989 111.702 19.8041 111.327 20.1564C110.951 20.4969 110.505 20.7612 109.988 20.9491C109.483 21.137 108.913 21.2309 108.279 21.2309ZM105.69 15.9111L105.355 15.6469H110.921L110.604 15.9111C110.604 15.3944 110.499 14.954 110.287 14.59C110.076 14.2142 109.794 13.9324 109.442 13.7445C109.089 13.5448 108.696 13.445 108.262 13.445C107.839 13.445 107.428 13.5448 107.028 13.7445C106.641 13.9324 106.318 14.2083 106.06 14.5724C105.813 14.9364 105.69 15.3827 105.69 15.9111ZM114.037 21.0195V12.2119H115.604L115.71 13.8325V21.0195H114.037ZM120.132 21.0195V16.51H121.805V21.0195H120.132ZM120.132 16.51C120.132 15.7115 120.038 15.1067 119.85 14.6957C119.674 14.2729 119.421 13.9793 119.092 13.8149C118.775 13.6505 118.405 13.5624 117.982 13.5507C117.266 13.5507 116.708 13.8032 116.309 14.3081C115.91 14.8131 115.71 15.5236 115.71 16.4396H114.988C114.988 15.5118 115.123 14.7192 115.393 14.0615C115.675 13.3922 116.068 12.8813 116.573 12.529C117.09 12.1767 117.701 12.0006 118.405 12.0006C119.098 12.0006 119.697 12.1415 120.202 12.4233C120.719 12.7052 121.112 13.1455 121.382 13.7445C121.664 14.3316 121.805 15.1067 121.805 16.0697V16.51H120.132ZM127.311 21.2309C126.43 21.2309 125.749 21.0078 125.267 20.5615C124.786 20.1035 124.545 19.4518 124.545 18.6063V9.46397H126.218V18.3596C126.218 18.7941 126.324 19.1288 126.535 19.3637C126.759 19.5868 127.076 19.6984 127.487 19.6984C127.604 19.6984 127.733 19.6749 127.874 19.6279C128.015 19.581 128.185 19.487 128.385 19.3461L129.019 20.6496C128.714 20.8493 128.42 20.996 128.138 21.09C127.868 21.1839 127.592 21.2309 127.311 21.2309ZM123.048 13.6564V12.2119H128.72V13.6564H123.048ZM131.693 16.281C131.693 15.3298 131.875 14.5548 132.239 13.9558C132.603 13.3569 133.073 12.9107 133.648 12.6171C134.224 12.3235 134.829 12.1767 135.463 12.1767V13.7621C134.934 13.7621 134.429 13.8443 133.948 14.0087C133.478 14.1614 133.09 14.4197 132.785 14.7838C132.492 15.1361 132.345 15.6175 132.345 16.2282L131.693 16.281ZM130.671 21.0195V12.2119H132.345V21.0195H130.671ZM142.22 21.0195L142.15 19.487V16.422C142.15 15.7761 142.074 15.2359 141.921 14.8014C141.78 14.3669 141.557 14.038 141.252 13.8149C140.958 13.5918 140.565 13.4802 140.071 13.4802C139.613 13.4802 139.214 13.5742 138.874 13.7621C138.545 13.95 138.269 14.2436 138.046 14.6428L136.566 14.0791C136.777 13.6799 137.042 13.3276 137.359 13.0222C137.676 12.7052 138.057 12.4585 138.504 12.2824C138.95 12.0945 139.472 12.0006 140.071 12.0006C140.905 12.0006 141.598 12.165 142.15 12.4938C142.702 12.8226 143.113 13.2982 143.383 13.9206C143.665 14.543 143.8 15.3122 143.788 16.2282L143.771 21.0195H142.22ZM139.631 21.2309C138.586 21.2309 137.77 20.996 137.183 20.5263C136.607 20.0448 136.319 19.3813 136.319 18.5358C136.319 17.6315 136.619 16.9446 137.218 16.4748C137.828 15.9933 138.674 15.7526 139.754 15.7526H142.203V17.0737H140.212C139.402 17.0737 138.832 17.2029 138.504 17.4613C138.175 17.7079 138.01 18.0543 138.01 18.5006C138.01 18.9116 138.163 19.2345 138.468 19.4694C138.785 19.6925 139.22 19.8041 139.772 19.8041C140.253 19.8041 140.67 19.7043 141.023 19.5046C141.375 19.2932 141.651 18.9997 141.851 18.6239C142.05 18.2481 142.15 17.8194 142.15 17.338H142.731C142.731 18.5358 142.473 19.487 141.956 20.1916C141.451 20.8845 140.676 21.2309 139.631 21.2309ZM145.895 21.0195V8.6889H147.569V21.0195H145.895Z" fill="url(#paint2_linear_140_14794)"/>
</g>
<defs>
<linearGradient id="paint0_linear_140_14794" x1="-66.2841" y1="97.7563" x2="-52.0534" y2="110.775" gradientUnits="userSpaceOnUse">
<stop stop-color="#3480B9"/>
<stop offset="0.476" stop-color="#5BC8EB"/>
<stop offset="0.999" stop-color="#44A16A"/>
</linearGradient>
<linearGradient id="paint1_linear_140_14794" x1="2892.86" y1="1409.09" x2="2878.08" y2="1396.8" gradientUnits="userSpaceOnUse">
<stop stop-color="#3480B9"/>
<stop offset="0.476" stop-color="#5BC8EB"/>
<stop offset="0.999" stop-color="#44A16A"/>
</linearGradient>
<linearGradient id="paint2_linear_140_14794" x1="52.9629" y1="9.01953" x2="147.963" y2="21.0195" gradientUnits="userSpaceOnUse">
<stop stop-color="#3480B9"/>
<stop offset="1" stop-color="#44A16A"/>
</linearGradient>
<clipPath id="clip0_140_14794">
<rect width="149.665" height="27.477" fill="white"/>
</clipPath>
</defs>
</svg>
