<svg xmlns="http://www.w3.org/2000/svg" xmlns:xlink="http://www.w3.org/1999/xlink" width="149.665" height="27.477" viewBox="0 0 149.665 27.477">
  <defs>
    <linearGradient id="linear-gradient" x1="-2.639" y1="3.752" x2="-2.081" y2="4.271" gradientUnits="objectBoundingBox">
      <stop offset="0" stop-color="#3480b9"/>
      <stop offset="0.476" stop-color="#5bc8eb"/>
      <stop offset="0.999" stop-color="#44a16a"/>
    </linearGradient>
    <linearGradient id="linear-gradient-2" x1="114.965" y1="52.809" x2="114.406" y2="52.314" xlink:href="#linear-gradient"/>
    <linearGradient id="linear-gradient-3" y1="0.071" x2="1.009" y2="1" gradientUnits="objectBoundingBox">
      <stop offset="0" stop-color="#3480b9"/>
      <stop offset="1" stop-color="#44a16a"/>
    </linearGradient>
  </defs>
  <g id="Group_457184" data-name="Group 457184" transform="translate(-24 -43)">
    <g id="Component_186_1" data-name="Component 186 – 1" transform="translate(24 43)">
      <g id="Group_457181" data-name="Group 457181" transform="translate(-1.936 -2)">
        <g id="Group_7701" data-name="Group 7701" transform="translate(1.936 2)">
          <g id="Group_7699" data-name="Group 7699" transform="translate(0 1.939)">
            <path id="Path_2652" data-name="Path 2652" d="M95.458,94.672a5.772,5.772,0,0,1-3.976-1.624,5.678,5.678,0,0,1-1.408-6.332l.025-.059L96.68,72.377a5.319,5.319,0,0,1,3.954-3.154,5.747,5.747,0,0,1,5.212,1.747l8.425,8.9a1.765,1.765,0,1,1-2.564,2.426l-8.425-8.9a2.232,2.232,0,0,0-2.013-.7,1.762,1.762,0,0,0-1.346,1.075l-.025.059L93.321,88.105a2.163,2.163,0,0,0,.594,2.386,2.122,2.122,0,0,0,2.392.458l4.269-2.041a1.765,1.765,0,1,1,1.523,3.185l-4.269,2.041A5.482,5.482,0,0,1,95.458,94.672Z" transform="translate(-89.649 -69.134)" fill="url(#linear-gradient)"/>
          </g>
          <g id="Group_7700" data-name="Group 7700" transform="translate(10.698 0)">
            <path id="Path_2653" data-name="Path 2653" d="M139.125,89.226a5.79,5.79,0,0,1-4.2-1.839l-8.424-8.9a1.765,1.765,0,0,1,2.564-2.426l8.425,8.9a2.23,2.23,0,0,0,2.013.7,1.763,1.763,0,0,0,1.346-1.075l6.6-15.5a2.157,2.157,0,0,0-.588-2.4,2.122,2.122,0,0,0-2.392-.458l-4.269,2.041a1.765,1.765,0,1,1-1.523-3.185l4.268-2.041a5.8,5.8,0,0,1,7.756,7.415l-6.6,15.5a5.312,5.312,0,0,1-3.964,3.175A5.614,5.614,0,0,1,139.125,89.226Z" transform="translate(-126.015 -62.545)" fill="url(#linear-gradient-2)"/>
          </g>
        </g>
        <line id="Line_1006" data-name="Line 1006" y2="26.899" transform="translate(43.25 2)" fill="none" stroke="#e2e7f1" stroke-width="1"/>
      </g>
      <path id="Path_9577" data-name="Path 9577" d="M1.26,0V-12.96H6.5q.189,0,.468.014a4.166,4.166,0,0,1,.531.059,3.847,3.847,0,0,1,1.8.738,3.489,3.489,0,0,1,1.085,1.431,4.914,4.914,0,0,1,.36,1.908,4.938,4.938,0,0,1-.36,1.917A3.489,3.489,0,0,1,9.3-5.463a3.847,3.847,0,0,1-1.8.738q-.252.036-.536.054T6.5-4.653H3.141V0ZM3.141-6.435H6.426q.18,0,.4-.018a2.983,2.983,0,0,0,.419-.063,1.831,1.831,0,0,0,.927-.5,2.141,2.141,0,0,0,.5-.842,3.108,3.108,0,0,0,.153-.954,3.066,3.066,0,0,0-.153-.95,2.146,2.146,0,0,0-.5-.837,1.831,1.831,0,0,0-.927-.5,2.3,2.3,0,0,0-.419-.072q-.22-.018-.4-.018H3.141ZM12.546,0V-12.96h8.28v1.773h-6.4v3.636h5.319v1.773H14.427v4.005h6.4V0ZM27.855.27a6.152,6.152,0,0,1-3.312-.851A5.515,5.515,0,0,1,22.45-2.952a8.117,8.117,0,0,1-.724-3.528,8.117,8.117,0,0,1,.724-3.528,5.515,5.515,0,0,1,2.093-2.371,6.152,6.152,0,0,1,3.312-.851,6.157,6.157,0,0,1,3.307.851,5.477,5.477,0,0,1,2.092,2.371,8.16,8.16,0,0,1,.72,3.528,8.16,8.16,0,0,1-.72,3.528A5.477,5.477,0,0,1,31.162-.581,6.157,6.157,0,0,1,27.855.27Zm0-1.791a3.87,3.87,0,0,0,2.291-.607,3.8,3.8,0,0,0,1.372-1.746,6.838,6.838,0,0,0,.459-2.606,6.769,6.769,0,0,0-.459-2.6,3.777,3.777,0,0,0-1.372-1.733,4.033,4.033,0,0,0-2.291-.63,3.89,3.89,0,0,0-2.291.6A3.769,3.769,0,0,0,24.192-9.09a6.986,6.986,0,0,0-.468,2.61,6.661,6.661,0,0,0,.45,2.6,3.756,3.756,0,0,0,1.382,1.733A4.077,4.077,0,0,0,27.855-1.521ZM44.784.27a6.152,6.152,0,0,1-3.312-.851,5.515,5.515,0,0,1-2.093-2.372,8.117,8.117,0,0,1-.724-3.528,8.117,8.117,0,0,1,.724-3.528,5.515,5.515,0,0,1,2.093-2.371,6.152,6.152,0,0,1,3.312-.851A5.9,5.9,0,0,1,48.5-12.1a5.866,5.866,0,0,1,2.048,3.051l-1.908.513a4.019,4.019,0,0,0-1.346-2.133,3.889,3.889,0,0,0-2.507-.774,4.006,4.006,0,0,0-2.295.621,3.791,3.791,0,0,0-1.382,1.737,6.744,6.744,0,0,0-.464,2.6,6.638,6.638,0,0,0,.455,2.6,3.781,3.781,0,0,0,1.386,1.737,4.028,4.028,0,0,0,2.3.621A3.874,3.874,0,0,0,47.29-2.3a4.041,4.041,0,0,0,1.346-2.128l1.908.513A5.866,5.866,0,0,1,48.5-.864,5.9,5.9,0,0,1,44.784.27Zm12.051,0a4.974,4.974,0,0,1-2.542-.634,4.4,4.4,0,0,1-1.7-1.773,5.528,5.528,0,0,1-.607-2.642,5.994,5.994,0,0,1,.6-2.763,4.371,4.371,0,0,1,1.669-1.809,4.773,4.773,0,0,1,2.493-.639,4.491,4.491,0,0,1,2.529.688,4.147,4.147,0,0,1,1.562,1.957,6.826,6.826,0,0,1,.41,3.015H59.364v-.684a4.158,4.158,0,0,0-.644-2.5,2.254,2.254,0,0,0-1.9-.81,2.554,2.554,0,0,0-2.124.891,4.047,4.047,0,0,0-.711,2.574,3.844,3.844,0,0,0,.711,2.479,2.488,2.488,0,0,0,2.052.878,2.828,2.828,0,0,0,1.526-.4,2.685,2.685,0,0,0,1-1.148l1.845.585A4.355,4.355,0,0,1,59.4-.446,4.764,4.764,0,0,1,56.835.27Zm-3.465-4.6V-5.8h6.939v1.467ZM69.813,0V-4.779a7.47,7.47,0,0,0-.094-1.166,3.634,3.634,0,0,0-.36-1.111,2.159,2.159,0,0,0-.747-.828A2.257,2.257,0,0,0,67.356-8.2a2.727,2.727,0,0,0-.954.167,1.994,1.994,0,0,0-.787.535,2.591,2.591,0,0,0-.531.972,4.843,4.843,0,0,0-.194,1.467L63.72-5.5a5.254,5.254,0,0,1,.5-2.336,3.725,3.725,0,0,1,1.422-1.579,4.215,4.215,0,0,1,2.241-.567,3.94,3.94,0,0,1,1.692.324,3.13,3.13,0,0,1,1.112.851,3.939,3.939,0,0,1,.653,1.148,5.913,5.913,0,0,1,.306,1.215A7.845,7.845,0,0,1,71.721-5.4V0ZM62.982,0V-9.72h1.683v2.808h.225V0ZM79.623,0a8.053,8.053,0,0,1-1.8.153,4.074,4.074,0,0,1-1.575-.342,2.146,2.146,0,0,1-1.044-.99,2.853,2.853,0,0,1-.338-1.228q-.022-.625-.022-1.418v-8.6h1.89v8.505q0,.585.014,1.017a1.539,1.539,0,0,0,.184.729,1.275,1.275,0,0,0,1.031.635,6.8,6.8,0,0,0,1.66-.058ZM72.981-8.208V-9.72h6.642v1.512ZM81.666,0V-9.72H83.34v2.358l-.234-.306a3.66,3.66,0,0,1,.468-.859,2.653,2.653,0,0,1,.666-.644,2.919,2.919,0,0,1,.824-.418,3.792,3.792,0,0,1,.932-.18,3.711,3.711,0,0,1,.918.049v1.764a3.028,3.028,0,0,0-1.058-.072,2.329,2.329,0,0,0-1.066.369,2.337,2.337,0,0,0-.725.72,3,3,0,0,0-.382.94,4.947,4.947,0,0,0-.117,1.094V0ZM91.1.27a3.718,3.718,0,0,1-1.809-.4,2.749,2.749,0,0,1-1.1-1.062,2.905,2.905,0,0,1-.373-1.453,3.029,3.029,0,0,1,.261-1.3,2.534,2.534,0,0,1,.774-.949,4.2,4.2,0,0,1,1.26-.635,13.816,13.816,0,0,1,1.467-.333Q92.394-6,93.3-6.129l1.8-.252L94.41-6a2.411,2.411,0,0,0-.481-1.7,2.227,2.227,0,0,0-1.715-.553,2.839,2.839,0,0,0-1.4.355,1.917,1.917,0,0,0-.891,1.174l-1.755-.54a3.628,3.628,0,0,1,1.372-1.989,4.477,4.477,0,0,1,2.7-.738,5.388,5.388,0,0,1,2.272.445,2.82,2.82,0,0,1,1.418,1.408,2.948,2.948,0,0,1,.288,1.008,11.329,11.329,0,0,1,.054,1.143V0H94.6V-2.223l.324.288A4.134,4.134,0,0,1,93.388-.275,4.471,4.471,0,0,1,91.1.27Zm.333-1.539a3.09,3.09,0,0,0,1.377-.284,2.665,2.665,0,0,0,.927-.725,2.282,2.282,0,0,0,.459-.918,3.318,3.318,0,0,0,.176-.972q.022-.54.022-.864L95-4.806l-1.62.243q-.729.108-1.318.211a8.345,8.345,0,0,0-1.049.248,3.4,3.4,0,0,0-.689.324,1.521,1.521,0,0,0-.477.459,1.18,1.18,0,0,0-.175.657,1.345,1.345,0,0,0,.189.7,1.316,1.316,0,0,0,.576.509A2.257,2.257,0,0,0,91.431-1.269ZM98.784,0V-13.23h1.881V0Z" transform="translate(49 21)" fill="url(#linear-gradient-3)"/>
    </g>
  </g>
</svg>
