<svg id="save-2_twotone" data-name="save-2/twotone" xmlns="http://www.w3.org/2000/svg" width="30" height="30" viewBox="0 0 24 24">
  <g id="vuesax_twotone_save-2" data-name="vuesax/twotone/save-2">
    <g id="save-2">
      <path id="Vector" d="M10.89,0H3.11A3.12,3.12,0,0,0,0,3.11V14.47c0,1.45,1.04,2.07,2.31,1.36l3.93-2.19a1.738,1.738,0,0,1,1.51,0l3.93,2.19c1.27.71,2.31.09,2.31-1.36V3.11A3.1,3.1,0,0,0,10.89,0Z" transform="translate(2 5.88)" fill="none" stroke="#5c7eef" stroke-linecap="round" stroke-linejoin="round" stroke-width="1.5"/>
      <path id="Vector-2" data-name="Vector" d="M14,3.11V14.47c0,1.45-1.04,2.06-2.31,1.36L7.76,13.64a1.76,1.76,0,0,0-1.52,0L2.31,15.83c-1.27.7-2.31.09-2.31-1.36V3.11A3.12,3.12,0,0,1,3.11,0h7.78A3.12,3.12,0,0,1,14,3.11Z" transform="translate(2 5.88)" fill="none" stroke="#5c7eef" stroke-linecap="round" stroke-linejoin="round" stroke-width="1.5"/>
      <path id="Vector-3" data-name="Vector" d="M14,3.11V14.47c0,1.45-1.04,2.06-2.31,1.36L8,13.77V6.99A3.12,3.12,0,0,0,4.89,3.88H0V3.11A3.12,3.12,0,0,1,3.11,0h7.78A3.12,3.12,0,0,1,14,3.11Z" transform="translate(8 2)" fill="none" stroke="#5c7eef" stroke-linecap="round" stroke-linejoin="round" stroke-width="1.5" opacity="0.4"/>
      <path id="Vector-4" data-name="Vector" d="M0,0H24V24H0Z" fill="none" opacity="0"/>
    </g>
  </g>
</svg>
