<svg id="vuesax_bulk_direct-inbox" data-name="vuesax/bulk/direct-inbox" xmlns="http://www.w3.org/2000/svg" width="24" height="24" viewBox="0 0 24 24">
  <g id="direct-inbox">
    <path id="Vector" d="M14.19,0H5.81C2.17,0,0,2.17,0,5.81v6.37C0,15.83,2.17,18,5.81,18h8.37c3.64,0,5.81-2.17,5.81-5.81V5.81C20,2.17,17.83,0,14.19,0Z" transform="translate(2 4)" fill="#293ff4" opacity="0.4"/>
    <path id="Vector-2" data-name="Vector" d="M19.3,0H15.82a2.538,2.538,0,0,0-2.29,1.42l-.84,1.66a1.162,1.162,0,0,1-1.04.65H8.37a1.066,1.066,0,0,1-1.04-.65L6.49,1.43A2.567,2.567,0,0,0,4.2.01H.7a.7.7,0,0,0-.7.7V3.97c0,3.63,2.18,5.8,5.82,5.8H14.2c3.43,0,5.54-1.88,5.8-5.22V.7A.7.7,0,0,0,19.3,0Z" transform="translate(2 12.23)" fill="#293ff4"/>
    <path id="Vector-3" data-name="Vector" d="M5.277,5.22a.754.754,0,0,0-1.06,0l-.72.72V.75A.75.75,0,0,0,2,.75V5.94l-.72-.72A.75.75,0,0,0,.218,6.28l2,2c.01.01.02.01.02.02a.855.855,0,0,0,.22.15.982.982,0,0,0,.29.05.671.671,0,0,0,.28-.06.963.963,0,0,0,.25-.16l2-2A.754.754,0,0,0,5.277,5.22Z" transform="translate(9.253 1.25)" fill="#293ff4"/>
    <path id="Vector-4" data-name="Vector" d="M0,0H24V24H0Z" fill="none" opacity="0"/>
  </g>
</svg>
