<svg id="Component_256_1" data-name="Component 256 – 1" xmlns="http://www.w3.org/2000/svg" width="36.703" height="36.703" viewBox="0 0 36.703 36.703">
  <g id="status-up_bulk" data-name="status-up/bulk">
    <g id="vuesax_bulk_status-up" data-name="vuesax/bulk/status-up">
      <g id="status-up">
        <g id="status-up-2" data-name="status-up" transform="translate(3.059 3.059)">
          <path id="Vector" d="M21.7,0H8.885C3.319,0,0,3.319,0,8.885v12.8c0,5.582,3.319,8.9,8.885,8.9h12.8c5.567,0,8.885-3.319,8.885-8.885V8.885C30.586,3.319,27.267,0,21.7,0Z" fill="#fff" opacity="0.4"/>
          <path id="Vector-2" data-name="Vector" d="M1.147,5.46A1.155,1.155,0,0,1,0,4.313V1.147A1.155,1.155,0,0,1,1.147,0,1.155,1.155,0,0,1,2.294,1.147V4.313A1.145,1.145,0,0,1,1.147,5.46Z" transform="translate(6.316 20.386)" fill="#fff"/>
          <path id="Vector-3" data-name="Vector" d="M1.147,8.641A1.155,1.155,0,0,1,0,7.494V1.147A1.155,1.155,0,0,1,1.147,0,1.155,1.155,0,0,1,2.294,1.147V7.494A1.145,1.145,0,0,1,1.147,8.641Z" transform="translate(14.146 17.205)" fill="#fff"/>
          <path id="Vector-4" data-name="Vector" d="M1.147,11.806A1.155,1.155,0,0,1,0,10.659V1.147A1.155,1.155,0,0,1,1.147,0,1.155,1.155,0,0,1,2.294,1.147v9.512A1.136,1.136,0,0,1,1.147,11.806Z" transform="translate(21.976 14.039)" fill="#fff"/>
          <path id="Vector-5" data-name="Vector" d="M17.957,1.1a1.377,1.377,0,0,0-.046-.245C17.9.8,17.881.719,17.865.658,17.835.6,17.789.551,17.758.489a.887.887,0,0,0-.153-.184C17.59.291,17.59.275,17.575.275,17.529.245,17.483.229,17.437.2a.975.975,0,0,0-.214-.122,1.219,1.219,0,0,0-.229-.046A.65.65,0,0,0,16.825,0H12.345A1.155,1.155,0,0,0,11.2,1.147a1.155,1.155,0,0,0,1.147,1.147h1.912A27.754,27.754,0,0,1,.875,10.109,1.156,1.156,0,0,0,.034,11.5a1.144,1.144,0,0,0,1.116.872,1.685,1.685,0,0,0,.275-.031,29.871,29.871,0,0,0,14.238-8.2V5.628a1.147,1.147,0,1,0,2.294,0V1.1Z" transform="translate(6.313 4.741)" fill="#fff"/>
        </g>
        <path id="Vector-6" data-name="Vector" d="M0,0H36.7V36.7H0Z" fill="none" opacity="0"/>
      </g>
    </g>
  </g>
</svg>
