<svg id="Component_257_1" data-name="Component 257 – 1" xmlns="http://www.w3.org/2000/svg" width="35.428" height="35.428" viewBox="0 0 35.428 35.428">
  <g id="note-text_bulk" data-name="note-text/bulk">
    <g id="vuesax_bulk_note-text" data-name="vuesax/bulk/note-text">
      <g id="note-text">
        <path id="Vector" d="M0,0H35.428V35.428H0Z" fill="none" opacity="0"/>
        <g id="Group" transform="translate(10.702 1.845)">
          <path id="Vector-2" data-name="Vector" d="M1.107,6.643A1.115,1.115,0,0,1,0,5.536V1.107A1.115,1.115,0,0,1,1.107,0,1.115,1.115,0,0,1,2.214,1.107V5.536A1.115,1.115,0,0,1,1.107,6.643Z" fill="#5c7eef"/>
        </g>
        <g id="Group-2" data-name="Group" transform="translate(22.511 1.845)">
          <path id="Vector-3" data-name="Vector" d="M1.107,6.643A1.115,1.115,0,0,1,0,5.536V1.107A1.115,1.115,0,0,1,1.107,0,1.115,1.115,0,0,1,2.214,1.107V5.536A1.115,1.115,0,0,1,1.107,6.643Z" fill="#5c7eef"/>
        </g>
        <path id="Vector-4" data-name="Vector" d="M26.571,7.381V19.928c0,4.428-2.214,7.381-7.381,7.381H7.381C2.214,27.309,0,24.357,0,19.928V7.381C0,2.952,2.214,0,7.381,0H19.19C24.357,0,26.571,2.952,26.571,7.381Z" transform="translate(4.428 5.167)" fill="#5c7eef" opacity="0.4"/>
        <g id="Group-3" data-name="Group" transform="translate(10.702 15.131)">
          <path id="Vector-5" data-name="Vector" d="M12.916,2.214H1.107A1.115,1.115,0,0,1,0,1.107,1.115,1.115,0,0,1,1.107,0H12.916a1.115,1.115,0,0,1,1.107,1.107A1.115,1.115,0,0,1,12.916,2.214Z" fill="#5c7eef"/>
        </g>
        <g id="Group-4" data-name="Group" transform="translate(10.702 22.511)">
          <path id="Vector-6" data-name="Vector" d="M7.012,2.214h-5.9A1.115,1.115,0,0,1,0,1.107,1.115,1.115,0,0,1,1.107,0h5.9A1.115,1.115,0,0,1,8.119,1.107,1.115,1.115,0,0,1,7.012,2.214Z" fill="#5c7eef"/>
        </g>
      </g>
    </g>
  </g>
</svg>
