<svg xmlns="http://www.w3.org/2000/svg" width="58.486" height="58.449" viewBox="0 0 58.486 58.449">
  <g id="Ring_Chart2" data-name="Ring Chart2" transform="translate(1.426 1.414)">
    <path id="Path_6898" data-name="Path 6898" d="M-44.54-103.5A27.725,27.725,0,0,1-18.172-84.343a27.725,27.725,0,0,1-10.072,31,27.725,27.725,0,0,1-32.592,0l3.306-4.551a22.1,22.1,0,0,0,25.979,0A22.1,22.1,0,0,0-23.522-82.6,22.1,22.1,0,0,0-44.54-97.875Z" transform="translate(72.339 103.586)" fill="#06c6cb" stroke="#fff" stroke-width="3"/>
    <path id="Path_6899" data-name="Path 6899" d="M-92.072-38.874A27.725,27.725,0,0,1-103.5-61.3a27.725,27.725,0,0,1,11.428-22.43l3.306,4.551A22.1,22.1,0,0,0-97.875-61.3a22.1,22.1,0,0,0,9.11,17.879Z" transform="translate(103.574 89.114)" fill="#ebebeb" stroke="#fff" stroke-width="3"/>
    <path id="Path_6900" data-name="Path 6900" d="M-60.836-98.205a27.725,27.725,0,0,1,16.3-5.295v5.625a22.1,22.1,0,0,0-12.99,4.221Z" transform="translate(72.339 103.586)" fill="#ebebeb" stroke="#fff" stroke-width="3"/>
  </g>
</svg>
