<svg id="vuesax_bulk_folder-open" data-name="vuesax/bulk/folder-open" xmlns="http://www.w3.org/2000/svg" width="34.545" height="34.545" viewBox="0 0 24 24">
  <g id="folder-open">
    <path id="Vector" d="M18.777,1.47l-.16-.22a3.209,3.209,0,0,0-.99-.81A3.408,3.408,0,0,0,15.937,0H3.487A3.436,3.436,0,0,0,1.8.44a3.382,3.382,0,0,0-1.03.86,3.535,3.535,0,0,0-.75,2.53L.387,8.5c.13,1.41.3,3.15,3.47,3.15h11.72c3.17,0,3.33-1.74,3.47-3.16l.37-4.65A3.365,3.365,0,0,0,18.777,1.47Zm-6.67,5.52H7.317a.7.7,0,1,1,0-1.4h4.79a.7.7,0,0,1,0,1.4Z" transform="translate(2.283 10.35)" fill="#5c7eef"/>
    <path id="Vector-2" data-name="Vector" d="M0,9.31a3.533,3.533,0,0,1,.7-.52,3.408,3.408,0,0,1,1.69-.44H14.85a3.436,3.436,0,0,1,1.69.44,3,3,0,0,1,.7.53V7.82c0-3.57-1.09-4.66-4.66-4.66H10.2c-.44,0-.45-.01-.71-.35L8.29,1.2A2.544,2.544,0,0,0,5.84,0H4.66C1.09,0,0,1.09,0,4.66V9.31Z" transform="translate(3.38 2)" fill="#5c7eef" opacity="0.4"/>
    <path id="Vector-3" data-name="Vector" d="M0,0H24V24H0Z" fill="none" opacity="0"/>
  </g>
</svg>
