<svg id="Group_458609" data-name="Group 458609" xmlns="http://www.w3.org/2000/svg" width="24" height="24" viewBox="0 0 24 24">
  <path id="Path_9771" data-name="Path 9771" d="M0,0H24V24H0Z" fill="none"/>
  <path id="Path_9772" data-name="Path 9772" d="M5,21V5A2,2,0,0,1,7,3H17a2,2,0,0,1,2,2V21l-3-2-2,2-2-2-2,2L8,19,5,21" fill="none" stroke="#f3654a" stroke-linecap="round" stroke-linejoin="round" stroke-width="1.5"/>
  <path id="Path_9773" data-name="Path 9773" d="M14,8H11.5a1.5,1.5,0,0,0,0,3h1a1.5,1.5,0,0,1,0,3H10m2,0v1.5m0-9V8" fill="none" stroke="rgba(243,101,74,0.6)" stroke-linecap="round" stroke-linejoin="round" stroke-width="1.5"/>
</svg>
