<svg id="Group_459413" data-name="Group 459413" xmlns="http://www.w3.org/2000/svg" width="24" height="24" viewBox="0 0 24 24">
  <path id="Path_9906" data-name="Path 9906" d="M0,0H24V24H0Z" fill="none"/>
  <path id="Path_9907" data-name="Path 9907" d="M15,3V7a1,1,0,0,0,1,1h4" fill="none" stroke="#ffb536" stroke-linecap="round" stroke-linejoin="round" stroke-width="1.5"/>
  <path id="Path_9908" data-name="Path 9908" d="M18,17H11a2,2,0,0,1-2-2V5a2,2,0,0,1,2-2h4l5,5v7A2,2,0,0,1,18,17Z" fill="none" stroke="#ffb536" stroke-linecap="round" stroke-linejoin="round" stroke-width="1.5"/>
  <path id="Path_9909" data-name="Path 9909" d="M16,17v2a2,2,0,0,1-2,2H7a2,2,0,0,1-2-2V9A2,2,0,0,1,7,7H9" fill="none" stroke="#ffb536" stroke-linecap="round" stroke-linejoin="round" stroke-width="1.5"/>
</svg>
