<?xml version="1.0" encoding="UTF-8"?>
<svg xmlns="http://www.w3.org/2000/svg" xmlns:xlink="http://www.w3.org/1999/xlink" width="24px" height="24px" viewBox="0 0 24 24" version="1.1">
<g id="surface1">
<path style=" stroke:none;fill-rule:nonzero;fill:rgb(94.509804%,27.843139%,25.882354%);fill-opacity:1;" d="M 23.613281 7.546875 C 23.613281 3.59375 20.40625 0.386719 16.453125 0.386719 C 12.5 0.386719 9.296875 3.59375 9.296875 7.546875 C 9.296875 11.5 12.5 14.703125 16.453125 14.703125 C 20.40625 14.703125 23.613281 11.5 23.613281 7.546875 Z M 23.613281 7.546875 "/>
<path style=" stroke:none;fill-rule:nonzero;fill:rgb(92.54902%,90.588236%,91.764706%);fill-opacity:1;" d="M 22.078125 7.546875 C 22.078125 4.4375 19.5625 1.921875 16.453125 1.921875 C 13.347656 1.921875 10.828125 4.4375 10.828125 7.546875 C 10.828125 10.652344 13.347656 13.171875 16.453125 13.171875 C 19.5625 13.171875 22.078125 10.652344 22.078125 7.546875 Z M 22.078125 7.546875 "/>
<path style=" stroke:none;fill-rule:nonzero;fill:rgb(10.588235%,25.490198%,27.058825%);fill-opacity:1;" d="M 8.5625 17.691406 L 2.917969 23.332031 C 2.332031 23.921875 1.695312 23.550781 1.074219 22.925781 C 0.449219 22.304688 0.078125 21.667969 0.667969 21.082031 L 6.308594 15.4375 L 8.125 15.875 Z M 8.5625 17.691406 "/>
<path style=" stroke:none;fill-rule:nonzero;fill:rgb(76.078433%,72.156864%,72.549021%);fill-opacity:1;" d="M 9.09375 17.183594 L 8.40625 17.871094 L 6.15625 15.617188 L 6.839844 14.933594 C 7.429688 14.34375 8.410156 14.371094 9.03125 14.992188 C 9.652344 15.617188 9.683594 16.597656 9.09375 17.183594 Z M 9.09375 17.183594 "/>
<path style=" stroke:none;fill-rule:nonzero;fill:rgb(0%,0%,0%);fill-opacity:1;" d="M 16.453125 0 C 12.292969 0 8.910156 3.386719 8.910156 7.546875 C 8.910156 11.707031 12.292969 15.089844 16.453125 15.089844 C 20.613281 15.089844 24 11.707031 24 7.546875 C 24 3.386719 20.613281 0 16.453125 0 Z M 16.453125 14.316406 C 12.71875 14.316406 9.683594 11.28125 9.683594 7.546875 C 9.683594 3.8125 12.71875 0.773438 16.453125 0.773438 C 20.1875 0.773438 23.226562 3.8125 23.226562 7.546875 C 23.226562 11.28125 20.1875 14.316406 16.453125 14.316406 Z M 16.453125 14.316406 "/>
<path style=" stroke:none;fill-rule:nonzero;fill:rgb(0%,0%,0%);fill-opacity:1;" d="M 13.308594 4.398438 C 13.15625 4.550781 13.15625 4.796875 13.308594 4.949219 C 13.382812 5.023438 13.484375 5.0625 13.582031 5.0625 C 13.679688 5.0625 13.78125 5.023438 13.855469 4.949219 C 14.550781 4.253906 15.472656 3.871094 16.453125 3.871094 C 17.4375 3.871094 18.359375 4.253906 19.050781 4.949219 C 19.203125 5.097656 19.449219 5.097656 19.601562 4.949219 C 19.75 4.796875 19.75 4.550781 19.601562 4.398438 C 18.761719 3.558594 17.640625 3.097656 16.453125 3.097656 C 15.265625 3.097656 14.148438 3.558594 13.308594 4.398438 Z M 13.308594 4.398438 "/>
<path style=" stroke:none;fill-rule:nonzero;fill:rgb(0%,0%,0%);fill-opacity:1;" d="M 10.390625 13.058594 L 8.902344 14.550781 C 8.132812 14.035156 7.082031 14.117188 6.40625 14.796875 L 0.433594 20.765625 C -0.0546875 21.253906 -0.0429688 21.753906 0.0507812 22.089844 C 0.152344 22.4375 0.390625 22.792969 0.800781 23.199219 C 1.207031 23.609375 1.5625 23.847656 1.910156 23.949219 C 2.015625 23.976562 2.140625 24 2.273438 24 C 2.5625 24 2.902344 23.898438 3.234375 23.566406 L 8.476562 18.324219 L 9.203125 17.59375 C 9.578125 17.222656 9.785156 16.722656 9.785156 16.195312 C 9.785156 15.796875 9.667969 15.417969 9.453125 15.097656 L 10.941406 13.609375 C 11.089844 13.457031 11.089844 13.210938 10.941406 13.058594 C 10.789062 12.910156 10.542969 12.910156 10.390625 13.058594 Z M 2.6875 23.015625 C 2.441406 23.265625 2.132812 23.441406 1.347656 22.652344 C 0.558594 21.867188 0.734375 21.558594 0.984375 21.3125 L 5.949219 16.34375 L 7.65625 18.050781 Z M 8.65625 17.046875 L 8.203125 17.5 L 6.5 15.796875 L 6.953125 15.34375 C 7.421875 14.871094 8.1875 14.871094 8.65625 15.34375 C 8.882812 15.570312 9.011719 15.875 9.011719 16.195312 C 9.011719 16.519531 8.882812 16.820312 8.65625 17.046875 Z M 8.65625 17.046875 "/>
<path style=" stroke:none;fill-rule:nonzero;fill:rgb(0%,0%,0%);fill-opacity:1;" d="M 22.082031 7.9375 C 21.867188 7.90625 21.671875 8.054688 21.644531 8.265625 C 21.289062 10.84375 19.058594 12.785156 16.453125 12.785156 C 13.566406 12.785156 11.214844 10.433594 11.214844 7.546875 C 11.214844 4.65625 13.566406 2.308594 16.453125 2.308594 C 19.058594 2.308594 21.289062 4.25 21.644531 6.824219 C 21.671875 7.035156 21.867188 7.183594 22.078125 7.15625 C 22.292969 7.125 22.441406 6.929688 22.410156 6.71875 C 22.214844 5.292969 21.507812 3.980469 20.421875 3.027344 C 19.324219 2.0625 17.914062 1.53125 16.453125 1.53125 C 13.136719 1.53125 10.441406 4.230469 10.441406 7.546875 C 10.441406 10.863281 13.136719 13.558594 16.453125 13.558594 C 17.914062 13.558594 19.324219 13.027344 20.421875 12.066406 C 21.507812 11.109375 22.214844 9.800781 22.410156 8.371094 C 22.441406 8.160156 22.292969 7.964844 22.082031 7.9375 Z M 22.082031 7.9375 "/>
</g>
</svg>
