<?xml version="1.0" encoding="utf-8"?>
<!-- Generator: Adobe Illustrator 26.0.3, SVG Export Plug-In . SVG Version: 6.00 Build 0)  -->
<svg version="1.1" id="Component_458_1" xmlns="http://www.w3.org/2000/svg" xmlns:xlink="http://www.w3.org/1999/xlink" x="0px"
	 y="0px" viewBox="0 0 34.9 33.8" style="enable-background:new 0 0 34.9 33.8;" xml:space="preserve">
<style type="text/css">
	.st0{clip-path:url(#SVGID_00000130636301243550331070000014820230920218813843_);}
	.st1{fill:url(#Image_00000133529923877207502250000015164494858783874951_);}
	.st2{fill:url(#Effect_00000054975079110121416420000008469224007456895377_);}
	.st3{fill:none;stroke:#FFFFFF;stroke-width:1.5;stroke-linecap:round;stroke-linejoin:round;}
</style>
<g id="Component_438_1">
	<g id="Group_6749">
		<g>
			<defs>
				<path id="SVGID_1_" d="M9,0h16.9c5,0,9,4,9,9v15.8c0,5-4,9-9,9H9c-5,0-9-4-9-9V9C0,4,4,0,9,0z"/>
			</defs>
			<clipPath id="SVGID_00000056418079339428551760000006845186486730091685_">
				<use xlink:href="#SVGID_1_"  style="overflow:visible;"/>
			</clipPath>
			<g id="Bg-2" style="clip-path:url(#SVGID_00000056418079339428551760000006845186486730091685_);">
				
					<linearGradient id="Image_00000008868231699078842960000015072844959484666292_" gradientUnits="userSpaceOnUse" x1="-264.3801" y1="133.6927" x2="-263.1731" y2="134.0217" gradientTransform="matrix(38.15 0 0 -33.881 10087.3574 4550.5137)">
					<stop  offset="0" style="stop-color:#0064D7"/>
					<stop  offset="1" style="stop-color:#3646FF"/>
				</linearGradient>
				<path id="Image" style="fill:url(#Image_00000008868231699078842960000015072844959484666292_);" d="M-1.7,0h38.2v33.9H-1.7V0z"
					/>
				
					<linearGradient id="Effect_00000102512155211250731030000016542711205039625101_" gradientUnits="userSpaceOnUse" x1="-264.3801" y1="133.5987" x2="-263.1731" y2="133.9277" gradientTransform="matrix(38.15 0 0 -33.5 10087.3574 4496.5874)">
					<stop  offset="0" style="stop-color:#0064D7"/>
					<stop  offset="1" style="stop-color:#3646FF"/>
				</linearGradient>
				<path id="Effect" style="fill:url(#Effect_00000102512155211250731030000016542711205039625101_);" d="M-1.7,0.4h38.2v33.5H-1.7
					V0.4z"/>
			</g>
		</g>
	</g>
	<g id="Group_6788" transform="translate(11.042 11.042)">
		<g id="Group_6791" transform="translate(0 0)">
			<g id="Group_6787">
				<path id="Vector" class="st3" d="M0,6.2h12.4"/>
				<path id="Vector-2" class="st3" d="M6.2,12.4V0"/>
			</g>
		</g>
	</g>
</g>
</svg>
