<svg id="Component_413_1" data-name="Component 413 – 1" xmlns="http://www.w3.org/2000/svg" xmlns:xlink="http://www.w3.org/1999/xlink" width="41.247" height="41.247" viewBox="0 0 41.247 41.247">
  <defs>
    <clipPath id="clip-path">
      <rect id="Rectangle_776" data-name="Rectangle 776" width="24.811" height="24.297" fill="#fff"/>
    </clipPath>
    <clipPath id="clip-path-3">
      <rect id="Rectangle_774" data-name="Rectangle 774" width="24.417" height="11.175" fill="#fff"/>
    </clipPath>
  </defs>
  <g id="Group_9909" data-name="Group 9909" transform="translate(-395 -271)">
    <path id="Path_7356" data-name="Path 7356" d="M20.624,0A20.624,20.624,0,1,1,0,20.624,20.624,20.624,0,0,1,20.624,0Z" transform="translate(395 271)" fill="#5c7eef"/>
  </g>
  <g id="Group_9932" data-name="Group 9932" transform="translate(8 8)" clip-path="url(#clip-path)">
    <g id="Group_9931" data-name="Group 9931">
      <g id="Group_9930" data-name="Group 9930" clip-path="url(#clip-path)">
        <path id="Path_7359" data-name="Path 7359" d="M8.391,19.241H9.872L12.416,9.9l3.178.848c.053-.213.1-.395.145-.579a16.423,16.423,0,0,0,.4-6.3c-.032-.208-.072-.414-.119-.617A4.544,4.544,0,0,0,15.3,1.593a1.826,1.826,0,0,0-2.371-.65,5.016,5.016,0,0,0-1.86,1.525,15.533,15.533,0,0,0-2.6,4.967c-.141.417-.262.841-.4,1.274l-.007.024,2.951.795.013,0-2.645,9.71M24.8,5.711A2.86,2.86,0,0,0,26.709.564,3.411,3.411,0,0,0,25.339,0h-.667a.965.965,0,0,1-.134.043A2.857,2.857,0,0,0,24.8,5.711M10.767.683A9.183,9.183,0,0,0,3.583,7.533l3.1.829A17.35,17.35,0,0,1,10.767.683M20.1,11.958a9.658,9.658,0,0,0-.163-5.653,8.666,8.666,0,0,0-2.659-3.919,17.444,17.444,0,0,1-.289,8.739l3.112.834" transform="translate(-3.049)" fill="#fff" opacity="0.4"/>
        <g id="Group_9929" data-name="Group 9929" transform="translate(0 13.121)">
          <g id="Group_9928" data-name="Group 9928">
            <g id="Group_9927" data-name="Group 9927" clip-path="url(#clip-path-3)">
              <path id="Path_7360" data-name="Path 7360" d="M24.308,97.671a4.267,4.267,0,0,0-3.932-3.519.31.31,0,0,1-.207-.075c-.312-.436-.613-.879-.945-1.362H21.51V91.29h-.3q-3.834,0-7.668,0a.4.4,0,0,1-.412-.226c-.544-.931-1.1-1.853-1.66-2.777-.044-.073-.092-.142-.145-.223l-1.208.73c.051.091.091.167.135.241.673,1.122,1.355,2.239,2.013,3.37a.515.515,0,0,0,.554.315c.292-.026.588-.006.92-.006-.313.453-.6.853-.868,1.264a.34.34,0,0,1-.329.168q-2.965-.007-5.93,0c-.069,0-.137-.007-.223-.011l0-.01H4.921l-.691.023a4.294,4.294,0,0,0-4.086,3.19c-.053.2-.1.413-.143.619v1.286H24.417a13.645,13.645,0,0,0-.109-1.574M14.5,94.127c.311-.45.6-.877.9-1.295a.3.3,0,0,1,.211-.108q.869-.013,1.738,0a.3.3,0,0,1,.211.108c.3.418.589.845.9,1.295Z" transform="translate(0 -88.069)" fill="#fff"/>
            </g>
          </g>
        </g>
      </g>
    </g>
  </g>
</svg>
