<svg id="vuesax_bulk_gallery" data-name="vuesax/bulk/gallery" xmlns="http://www.w3.org/2000/svg" width="24" height="24" viewBox="0 0 24 24">
  <g id="gallery">
    <path id="Vector" d="M20,5.81V11.9l-1.63-1.4a2.229,2.229,0,0,0-2.82,0l-4.16,3.57a2.229,2.229,0,0,1-2.82,0l-.34-.28a2.221,2.221,0,0,0-2.64-.14L.67,16.95l-.11.08A6.723,6.723,0,0,1,0,14.19V5.81C0,2.17,2.17,0,5.81,0h8.38C17.83,0,20,2.17,20,5.81Z" transform="translate(2 2)" fill="#4e5be1" opacity="0.4"/>
    <path id="Vector-2" data-name="Vector" d="M4.76,2.38A2.38,2.38,0,1,1,2.38,0,2.38,2.38,0,0,1,4.76,2.38Z" transform="translate(6.62 5.62)" fill="#4e5be1"/>
    <path id="Vector-3" data-name="Vector" d="M19.44,1.9v2.29c0,3.64-2.17,5.81-5.81,5.81H5.25C2.7,10,.86,8.933,0,7.033l.11-.08,4.92-3.3a2.221,2.221,0,0,1,2.64.14l.34.28a2.229,2.229,0,0,0,2.82,0L14.99.5a2.229,2.229,0,0,1,2.82,0Z" transform="translate(2.56 11.998)" fill="#4e5be1"/>
    <path id="Vector-4" data-name="Vector" d="M0,0H24V24H0Z" fill="none" opacity="0"/>
  </g>
</svg>
