<svg id="timer-start_bulk" data-name="timer-start/bulk" xmlns="http://www.w3.org/2000/svg" width="35.662" height="35.662" viewBox="0 0 35.662 35.662">
  <g id="vuesax_bulk_timer-start" data-name="vuesax/bulk/timer-start">
    <g id="timer-start">
      <path id="Vector" d="M1.114,9.658A1.123,1.123,0,0,1,0,8.544V1.114A1.123,1.123,0,0,1,1.114,0,1.123,1.123,0,0,1,2.229,1.114v7.43A1.123,1.123,0,0,1,1.114,9.658Z" transform="translate(16.717 10.773)" fill="#fff"/>
      <path id="Vector-2" data-name="Vector" d="M9.658,2.155H1.07A1.065,1.065,0,0,1,0,1.085,1.078,1.078,0,0,1,1.07,0H9.658a1.065,1.065,0,0,1,1.07,1.07A1.078,1.078,0,0,1,9.658,2.155Z" transform="translate(12.467 2.972)" fill="#fff"/>
      <path id="Vector-3" data-name="Vector" d="M17.341,22.749V18.381a2.773,2.773,0,0,1,3.016-3.016h4.369a3.366,3.366,0,0,1,.788.089,13.345,13.345,0,0,0,.253-2.571A12.888,12.888,0,1,0,17.95,24.726,3.165,3.165,0,0,1,17.341,22.749Z" transform="translate(4.948 6.924)" fill="#fff" opacity="0.4"/>
      <path id="Vector-4" data-name="Vector" d="M7.385,0H3.016A2.773,2.773,0,0,0,0,3.016V7.385A2.773,2.773,0,0,0,3.016,10.4H7.385A2.773,2.773,0,0,0,10.4,7.385V3.016A2.773,2.773,0,0,0,7.385,0ZM6.969,6.627,5.216,7.638a2.09,2.09,0,0,1-1.04.312,1.341,1.341,0,0,1-.684-.178,1.709,1.709,0,0,1-.743-1.56V4.19a1.709,1.709,0,0,1,.743-1.56,1.7,1.7,0,0,1,1.724.134l1.753,1.01A1.728,1.728,0,0,1,7.95,5.2,1.7,1.7,0,0,1,6.969,6.627Z" transform="translate(22.289 22.289)" fill="#fff"/>
      <path id="Vector-5" data-name="Vector" d="M0,0H35.662V35.662H0Z" fill="none" opacity="0"/>
    </g>
  </g>
</svg>
