<svg id="vuesax_linear_calendar" data-name="vuesax/linear/calendar" xmlns="http://www.w3.org/2000/svg" width="19.535" height="19.535" viewBox="0 0 19.535 19.535">
  <g id="calendar">
    <path id="Vector" d="M0,0V3" transform="translate(6.512 2)" fill="none" stroke="#8798ad" stroke-linecap="round" stroke-linejoin="round" stroke-width="1"/>
    <path id="Vector-2" data-name="Vector" d="M0,0V3" transform="translate(13.023 2)" fill="none" stroke="#8798ad" stroke-linecap="round" stroke-linejoin="round" stroke-width="1"/>
    <path id="Vector-3" data-name="Vector" d="M0,0H12.535" transform="translate(3.5 7.399)" fill="none" stroke="#8798ad" stroke-linecap="round" stroke-linejoin="round" stroke-width="1"/>
    <path id="Vector-4" data-name="Vector" d="M13.535,3.793v6.449c0,2.276-1.128,3.793-3.76,3.793H3.76C1.128,14.035,0,12.518,0,10.242V3.793C0,1.517,1.128,0,3.76,0H9.775C12.407,0,13.535,1.517,13.535,3.793Z" transform="translate(3 3.5)" fill="none" stroke="#8798ad" stroke-linecap="round" stroke-linejoin="round" stroke-width="1"/>
    <path id="Vector-5" data-name="Vector" d="M0,0H19.535V19.535H0Z" fill="none" opacity="0"/>
    <path id="Vector-6" data-name="Vector" d="M.495.5H.5" transform="translate(12.279 10.651)" fill="none" stroke="#8798ad" stroke-linecap="round" stroke-linejoin="round" stroke-width="1"/>
    <path id="Vector-7" data-name="Vector" d="M.495.5H.5" transform="translate(12.279 13.093)" fill="none" stroke="#8798ad" stroke-linecap="round" stroke-linejoin="round" stroke-width="1"/>
    <path id="Vector-8" data-name="Vector" d="M.495.5H.5" transform="translate(9.269 10.651)" fill="none" stroke="#8798ad" stroke-linecap="round" stroke-linejoin="round" stroke-width="1"/>
    <path id="Vector-9" data-name="Vector" d="M.495.5H.5" transform="translate(9.269 13.093)" fill="none" stroke="#8798ad" stroke-linecap="round" stroke-linejoin="round" stroke-width="1"/>
    <path id="Vector-10" data-name="Vector" d="M.495.5H.5" transform="translate(6.256 10.651)" fill="none" stroke="#8798ad" stroke-linecap="round" stroke-linejoin="round" stroke-width="1"/>
    <path id="Vector-11" data-name="Vector" d="M.495.5H.5" transform="translate(6.256 13.093)" fill="none" stroke="#8798ad" stroke-linecap="round" stroke-linejoin="round" stroke-width="1"/>
  </g>
</svg>
