<svg id="calendar_linear" data-name="calendar/linear" xmlns="http://www.w3.org/2000/svg" width="30.375" height="30.375" viewBox="0 0 30.375 30.375">
  <g id="vuesax_linear_calendar" data-name="vuesax/linear/calendar">
    <g id="calendar">
      <path id="Vector" d="M0,0V2.893" transform="translate(10.125 1.929)" fill="none" stroke="#5c7eef" stroke-linecap="round" stroke-linejoin="round" stroke-width="1"/>
      <path id="Vector-2" data-name="Vector" d="M0,0V2.893" transform="translate(20.25 1.929)" fill="none" stroke="#5c7eef" stroke-linecap="round" stroke-linejoin="round" stroke-width="1"/>
      <path id="Vector-3" data-name="Vector" d="M0,0H23.625" transform="translate(3.375 11.505)" fill="none" stroke="#5c7eef" stroke-linecap="round" stroke-linejoin="round" stroke-width="1"/>
      <path id="Vector-4" data-name="Vector" d="M24.589,6.776V18.3c0,4.066-2.049,6.776-6.83,6.776H6.83C2.049,25.071,0,22.361,0,18.3V6.776C0,2.71,2.049,0,6.83,0H17.759C22.54,0,24.589,2.71,24.589,6.776Z" transform="translate(2.893 3.375)" fill="none" stroke="#5c7eef" stroke-linecap="round" stroke-linejoin="round" stroke-width="1"/>
      <path id="Vector-5" data-name="Vector" d="M0,0H30.375V30.375H0Z" fill="none" opacity="0"/>
      <path id="Vector-6" data-name="Vector" d="M.495.5H.5" transform="translate(19.371 16.839)" fill="none" stroke="#5c7eef" stroke-linecap="round" stroke-linejoin="round" stroke-width="1"/>
      <path id="Vector-7" data-name="Vector" d="M.495.5H.5" transform="translate(19.371 20.636)" fill="none" stroke="#5c7eef" stroke-linecap="round" stroke-linejoin="round" stroke-width="1"/>
      <path id="Vector-8" data-name="Vector" d="M.495.5H.5" transform="translate(14.689 16.839)" fill="none" stroke="#5c7eef" stroke-linecap="round" stroke-linejoin="round" stroke-width="1"/>
      <path id="Vector-9" data-name="Vector" d="M.495.5H.5" transform="translate(14.689 20.636)" fill="none" stroke="#5c7eef" stroke-linecap="round" stroke-linejoin="round" stroke-width="1"/>
      <path id="Vector-10" data-name="Vector" d="M.495.5H.5" transform="translate(10.004 16.839)" fill="none" stroke="#5c7eef" stroke-linecap="round" stroke-linejoin="round" stroke-width="1"/>
      <path id="Vector-11" data-name="Vector" d="M.495.5H.5" transform="translate(10.004 20.636)" fill="none" stroke="#5c7eef" stroke-linecap="round" stroke-linejoin="round" stroke-width="1"/>
    </g>
  </g>
</svg>
