<svg id="vuesax_bulk_info-circle" data-name="vuesax/bulk/info-circle" xmlns="http://www.w3.org/2000/svg" width="28.028" height="28.028" viewBox="0 0 28.028 28.028">
  <g id="info-circle">
    <g id="Vector" transform="translate(2.336 2.336)" fill="none">
      <path d="M23.357,11.678A11.678,11.678,0,1,1,11.678,0,11.678,11.678,0,0,1,23.357,11.678Z" stroke="none"/>
      <path d="M 11.67846775054932 0.9999980926513672 C 5.790338516235352 0.9999980926513672 0.9999980926513672 5.790338516235352 0.9999980926513672 11.67846775054932 C 0.9999980926513672 17.56659698486328 5.790338516235352 22.35693740844727 11.67846775054932 22.35693740844727 C 17.56659698486328 22.35693740844727 22.35693740844727 17.56659698486328 22.35693740844727 11.67846775054932 C 22.35693740844727 5.790338516235352 17.56659698486328 0.9999980926513672 11.67846775054932 0.9999980926513672 M 11.67846775054932 -1.9073486328125e-06 C 18.1283073425293 -1.9073486328125e-06 23.35693740844727 5.228628158569336 23.35693740844727 11.67846775054932 C 23.35693740844727 18.1283073425293 18.1283073425293 23.35693740844727 11.67846775054932 23.35693740844727 C 5.228628158569336 23.35693740844727 -1.9073486328125e-06 18.1283073425293 -1.9073486328125e-06 11.67846775054932 C -1.9073486328125e-06 5.228628158569336 5.228628158569336 -1.9073486328125e-06 11.67846775054932 -1.9073486328125e-06 Z" stroke="none" fill="#bfc8d1"/>
    </g>
    <path id="Vector-2" data-name="Vector" d="M.876,7.591a.882.882,0,0,0,.876-.876V.876A.882.882,0,0,0,.876,0,.882.882,0,0,0,0,.876V6.715A.882.882,0,0,0,.876,7.591Z" transform="translate(13.138 8.467)" fill="#bfc8d1"/>
    <path id="Vector-3" data-name="Vector" d="M2.242.718A1.349,1.349,0,0,0,2,.333,1.349,1.349,0,0,0,1.612.088a1.168,1.168,0,0,0-.888,0A1.349,1.349,0,0,0,.339.333,1.349,1.349,0,0,0,.093.718,1.162,1.162,0,0,0,0,1.162a1.162,1.162,0,0,0,.093.444,1.206,1.206,0,0,0,.245.385,1.349,1.349,0,0,0,.385.245,1.162,1.162,0,0,0,.444.093,1.162,1.162,0,0,0,.444-.093A1.349,1.349,0,0,0,2,1.991a1.206,1.206,0,0,0,.245-.385,1.163,1.163,0,0,0,.093-.444A1.163,1.163,0,0,0,2.242.718Z" transform="translate(12.846 17.524)" fill="#bfc8d1"/>
    <path id="Vector-4" data-name="Vector" d="M0,0H28.028V28.028H0Z" fill="none" opacity="0"/>
  </g>
</svg>
