<svg id="vuesax_bulk_calendar" data-name="vuesax/bulk/calendar" xmlns="http://www.w3.org/2000/svg" width="35.746" height="35.746" viewBox="0 0 35.746 35.746">
  <g id="calendar">
    <path id="Vector" d="M0,0H35.746V35.746H0Z" fill="none" opacity="0"/>
    <path id="Vector-2" data-name="Vector" d="M20.422,3.441V1.117a1.117,1.117,0,0,0-2.234,0V3.351H8.506V1.117a1.117,1.117,0,0,0-2.234,0V3.441C2.251,3.813.3,6.211,0,9.771a.748.748,0,0,0,.745.789h25.2a.739.739,0,0,0,.745-.789C26.394,6.211,24.443,3.813,20.422,3.441Z" transform="translate(4.526 1.862)" fill="#5c7eef"/>
    <path id="Vector-3" data-name="Vector" d="M25.32,0A1.494,1.494,0,0,1,26.81,1.489v9.175c0,4.468-2.234,7.447-7.447,7.447H7.447C2.234,18.111,0,15.133,0,10.664V1.489A1.494,1.494,0,0,1,1.489,0Z" transform="translate(4.468 14.656)" fill="#5c7eef" opacity="0.4"/>
    <g id="Group" transform="translate(11.171 19.364)">
      <path id="Vector-4" data-name="Vector" d="M1.489,2.977A1.566,1.566,0,0,1,.432,2.545,1.566,1.566,0,0,1,0,1.488,1.566,1.566,0,0,1,.432.43,1.488,1.488,0,0,1,2.055.117,1.39,1.39,0,0,1,2.547.43a1.566,1.566,0,0,1,.432,1.057,1.566,1.566,0,0,1-.432,1.057A1.566,1.566,0,0,1,1.489,2.977Z" transform="translate(0 0)" fill="#5c7eef"/>
    </g>
    <g id="Group-2" data-name="Group" transform="translate(16.384 19.364)">
      <path id="Vector-5" data-name="Vector" d="M1.489,2.977A1.566,1.566,0,0,1,.432,2.545,1.566,1.566,0,0,1,0,1.488,1.566,1.566,0,0,1,.432.43,1.39,1.39,0,0,1,.923.117,1.488,1.488,0,0,1,2.547.43a1.566,1.566,0,0,1,.432,1.057,1.566,1.566,0,0,1-.432,1.057l-.223.179a1.128,1.128,0,0,1-.268.134.947.947,0,0,1-.268.089A2.018,2.018,0,0,1,1.489,2.977Z" transform="translate(0 0)" fill="#5c7eef"/>
    </g>
    <g id="Group-3" data-name="Group" transform="translate(21.597 19.362)">
      <path id="Vector-6" data-name="Vector" d="M1.489,2.979A1.566,1.566,0,0,1,.432,2.547,1.566,1.566,0,0,1,0,1.489,1.566,1.566,0,0,1,.432.432,1.538,1.538,0,0,1,.923.119,1.424,1.424,0,0,1,1.787.03a.947.947,0,0,1,.268.089,1.128,1.128,0,0,1,.268.134l.223.179a1.566,1.566,0,0,1,.432,1.057,1.566,1.566,0,0,1-.432,1.057l-.223.179a1.128,1.128,0,0,1-.268.134.947.947,0,0,1-.268.089A2.238,2.238,0,0,1,1.489,2.979Z" transform="translate(0 0)" fill="#5c7eef"/>
    </g>
    <g id="Group-4" data-name="Group" transform="translate(11.171 24.575)">
      <path id="Vector-7" data-name="Vector" d="M1.489,2.979A1.483,1.483,0,0,1,.923,2.86a1.538,1.538,0,0,1-.492-.313A1.566,1.566,0,0,1,0,1.489,1.566,1.566,0,0,1,.432.432,1.538,1.538,0,0,1,.923.119,1.424,1.424,0,0,1,1.787.03a.947.947,0,0,1,.268.089,1.128,1.128,0,0,1,.268.134l.223.179a1.566,1.566,0,0,1,.432,1.057,1.566,1.566,0,0,1-.432,1.057,2.347,2.347,0,0,1-.223.179,1.128,1.128,0,0,1-.268.134.947.947,0,0,1-.268.089A2.018,2.018,0,0,1,1.489,2.979Z" transform="translate(0 0)" fill="#5c7eef"/>
    </g>
    <g id="Group-5" data-name="Group" transform="translate(16.384 24.594)">
      <path id="Vector-8" data-name="Vector" d="M1.489,2.96A1.566,1.566,0,0,1,.432,2.528,1.566,1.566,0,0,1,0,1.471,1.566,1.566,0,0,1,.432.413a1.559,1.559,0,0,1,2.115,0,1.566,1.566,0,0,1,.432,1.057,1.566,1.566,0,0,1-.432,1.057A1.566,1.566,0,0,1,1.489,2.96Z" transform="translate(0 0)" fill="#5c7eef"/>
    </g>
    <g id="Group-6" data-name="Group" transform="translate(21.597 24.594)">
      <path id="Vector-9" data-name="Vector" d="M1.489,2.96A1.566,1.566,0,0,1,.432,2.528,1.566,1.566,0,0,1,0,1.471,1.566,1.566,0,0,1,.432.413a1.559,1.559,0,0,1,2.115,0,1.566,1.566,0,0,1,.432,1.057,1.566,1.566,0,0,1-.432,1.057A1.566,1.566,0,0,1,1.489,2.96Z" transform="translate(0 0)" fill="#5c7eef"/>
    </g>
  </g>
</svg>
