<svg id="vuesax_bulk_people" data-name="vuesax/bulk/people" xmlns="http://www.w3.org/2000/svg" width="20.88" height="20.88" viewBox="0 0 20.88 20.88">
  <g id="people">
    <path id="Vector" d="M0,0H20.88V20.88H0Z" fill="none" opacity="0"/>
    <path id="Vector-2" data-name="Vector" d="M2.6,5.02a.643.643,0,0,0-.183,0,2.519,2.519,0,1,1,.183,0Z" transform="translate(12.65 1.74)" fill="#6182ef" opacity="0.4"/>
    <path id="Vector-3" data-name="Vector" d="M3.645,4.083a5.4,5.4,0,0,1-3.6.731,5.682,5.682,0,0,0,.513-2.34A5.346,5.346,0,0,0,0,.054,5.426,5.426,0,0,1,3.637.777,1.843,1.843,0,0,1,3.645,4.083Z" transform="translate(14.442 8.706)" fill="#6182ef" opacity="0.4"/>
    <path id="Vector-4" data-name="Vector" d="M2.427,5.02a.643.643,0,0,1,.183,0,2.519,2.519,0,1,0-.183,0Z" transform="translate(3.175 1.74)" fill="#6182ef" opacity="0.4"/>
    <path id="Vector-5" data-name="Vector" d="M3.963,2.473A5.666,5.666,0,0,0,4.476,4.84a5.376,5.376,0,0,1-3.445-.748,1.848,1.848,0,0,1,0-3.315A5.343,5.343,0,0,1,4.511.037,5.531,5.531,0,0,0,3.963,2.473Z" transform="translate(1.736 8.706)" fill="#6182ef" opacity="0.4"/>
    <path id="Vector-6" data-name="Vector" d="M3.106,5.977a.983.983,0,0,0-.226,0A2.99,2.99,0,1,1,5.986,2.993,2.974,2.974,0,0,1,3.106,5.977Z" transform="translate(7.438 7.83)" fill="#6182ef"/>
    <path id="Vector-7" data-name="Vector" d="M.985.75a1.786,1.786,0,0,0,0,3.193,5.316,5.316,0,0,0,5.446,0,1.786,1.786,0,0,0,0-3.193A5.316,5.316,0,0,0,.985.75Z" transform="translate(6.732 14.857)" fill="#6182ef"/>
  </g>
</svg>
