<svg id="Component_412_1" data-name="Component 412 – 1" xmlns="http://www.w3.org/2000/svg" xmlns:xlink="http://www.w3.org/1999/xlink" width="41.247" height="41.247" viewBox="0 0 41.247 41.247">
  <defs>
    <clipPath id="clip-path">
      <rect id="Rectangle_777" data-name="Rectangle 777" width="12.199" height="32.35" fill="none"/>
    </clipPath>
  </defs>
  <g id="Group_9909" data-name="Group 9909" transform="translate(-395 -271)">
    <path id="Path_7356" data-name="Path 7356" d="M20.624,0A20.624,20.624,0,1,1,0,20.624,20.624,20.624,0,0,1,20.624,0Z" transform="translate(395 271)" fill="#6869ac"/>
  </g>
  <g id="Group_9933" data-name="Group 9933" transform="translate(15.996 3.709)" clip-path="url(#clip-path)">
    <path id="Path_7361" data-name="Path 7361" d="M118.874,41.746a1.132,1.132,0,0,1-1.011.73,1.024,1.024,0,0,1-1-.813,1.038,1.038,0,0,1,.648-1.15,1.017,1.017,0,0,1,1.217.429c.055.091.1.188.15.282Z" transform="translate(-106.675 -36.93)" fill="#fff" opacity="0.4"/>
    <path id="Path_7362" data-name="Path 7362" d="M1.041,16.431q0-1.142-.005-2.284c.111-.117.259-.1.4-.1.488,0,.976,0,1.464,0a1.607,1.607,0,0,0,.356-.023.4.4,0,0,0,.342-.346.422.422,0,0,0-.219-.438.91.91,0,0,0-.5-.107c-.477,0-.954,0-1.431,0a.529.529,0,0,1-.4-.089,7.571,7.571,0,0,1,.069-1.786A1.832,1.832,0,0,1,2.965,9.6c.175-.016.186-.1.185-.23a6.541,6.541,0,0,1,.042-1.042,1.886,1.886,0,0,1,.494-1.078.589.589,0,0,0,.174-.461q-.007-2.968,0-5.936c0-.087,0-.174,0-.261a.551.551,0,1,1,1.1,0c0,.087,0,.174,0,.261q0,2.968,0,5.936a.538.538,0,0,0,.183.451A2.028,2.028,0,0,1,5.73,8.71c.014.249.006.5,0,.75,0,.11.016.17.153.189A1.962,1.962,0,0,1,7.7,11.63c.023.249.026.5.026.749q0,5.333,0,10.666c0,.2,0,.334.277.353A1.213,1.213,0,0,1,9.117,24.62a1.232,1.232,0,0,1-1.19,1.2c-.6.019-1.2.016-1.794,0-.219-.005-.27.066-.269.275q.013,2.022,0,4.045c0,.173.027.265.222.321a.952.952,0,0,1,.686,1.05.972.972,0,0,1-.977.836q-1.386.011-2.773,0a.978.978,0,0,1-.978-.834.945.945,0,0,1,.619-1.032c.188-.067.217-.159.216-.329-.005-1.348-.009-2.7,0-4.045,0-.234-.069-.292-.294-.284-.467.017-.935.019-1.4,0A1.245,1.245,0,0,1,.015,24.783a1.218,1.218,0,0,1,.791-1.316c.2-.074.227-.178.226-.358,0-.728.005-1.456.009-2.184a.628.628,0,0,1,.435-.092c.477,0,.953,0,1.43,0a1.9,1.9,0,0,0,.292-.013.506.506,0,0,0,.462-.429.479.479,0,0,0-.463-.458c-.421-.04-.845,0-1.266-.019-.3-.014-.608.082-.889-.091q0-1.144,0-2.288a.622.622,0,0,1,.435-.094c.488,0,.976,0,1.464,0a1.362,1.362,0,0,0,.356-.029A.425.425,0,0,0,3.654,17a.441.441,0,0,0-.328-.436,1.037,1.037,0,0,0-.386-.043c-.488,0-.976,0-1.464,0a.628.628,0,0,1-.435-.092" transform="translate(0 0)" fill="#fff"/>
    <path id="Path_7363" data-name="Path 7363" d="M83.807,6.406a1.014,1.014,0,0,1-1,1.022,1.017,1.017,0,1,1-.011-2.034,1.017,1.017,0,0,1,1.014,1.012" transform="translate(-74.664 -4.925)" fill="#fff" opacity="0.4"/>
    <path id="Path_7364" data-name="Path 7364" d="M11.54,149.861c.64,0,1.28,0,1.92,0a1.269,1.269,0,0,1,.32.038.545.545,0,0,1,.435.6.515.515,0,0,1-.565.467c-.705.006-1.41,0-2.116,0a4.038,4.038,0,0,1,.006-1.106" transform="translate(-10.499 -136.82)" fill="#fff" opacity="0.4"/>
    <path id="Path_7365" data-name="Path 7365" d="M11.707,188.806c.685,0,1.369,0,2.054,0,.4,0,.678.225.687.54.01.35-.247.564-.688.566-.685,0-1.369,0-2.054,0a6.3,6.3,0,0,1,0-1.1" transform="translate(-10.666 -172.375)" fill="#fff" opacity="0.4"/>
    <path id="Path_7366" data-name="Path 7366" d="M11.706,227.777c.684,0,1.367,0,2.051,0,.41,0,.7.243.69.568s-.294.536-.69.537c-.684,0-1.367,0-2.051,0a6.277,6.277,0,0,1,0-1.1" transform="translate(-10.665 -207.955)" fill="#fff" opacity="0.4"/>
  </g>
</svg>
