<svg id="Component_1163_1" data-name="Component 1163 – 1" xmlns="http://www.w3.org/2000/svg" width="41.247" height="41.247" viewBox="0 0 41.247 41.247">
  <g id="Group_13007" data-name="Group 13007" transform="translate(-395 -347)">
    <g id="Group_9909" data-name="Group 9909" transform="translate(0 76)">
      <path id="Path_7356" data-name="Path 7356" d="M20.624,0A20.624,20.624,0,1,1,0,20.624,20.624,20.624,0,0,1,20.624,0Z" transform="translate(395 271)" fill="#f0cb59"/>
    </g>
    <g id="Group_13006" data-name="Group 13006">
      <g id="vuesax_bulk_calendar" data-name="vuesax/bulk/calendar" transform="translate(398 355)">
        <g id="calendar">
          <path id="Vector" d="M0,0H24V24H0Z" fill="none" opacity="0"/>
          <path id="Vector-2" data-name="Vector" d="M13.711,2.31V.75a.75.75,0,0,0-1.5,0v1.5h-6.5V.75a.75.75,0,0,0-1.5,0V2.31A4.248,4.248,0,0,0,0,6.56a.5.5,0,0,0,.5.53h16.92a.5.5,0,0,0,.5-.53A4.248,4.248,0,0,0,13.711,2.31Z" transform="translate(3.039 1.25)" fill="#f1cc5a"/>
          <path id="Vector-3" data-name="Vector" d="M17,0a1,1,0,0,1,1,1V7.16c0,3-1.5,5-5,5H5c-3.5,0-5-2-5-5V1A1,1,0,0,1,1,0Z" transform="translate(3 9.84)" fill="#f1cc5a" opacity="0.4"/>
          <g id="Group">
            <path id="Vector-4" data-name="Vector" d="M1,2a1.052,1.052,0,0,1-.71-.29A1.052,1.052,0,0,1,0,1,1.052,1.052,0,0,1,.29.289,1,1,0,0,1,1.38.079a.933.933,0,0,1,.33.21A1.052,1.052,0,0,1,2,1a1.052,1.052,0,0,1-.29.71A1.052,1.052,0,0,1,1,2Z" transform="translate(7.5 13.001)" fill="#f1cc5a"/>
          </g>
          <g id="Group-2" data-name="Group">
            <path id="Vector-5" data-name="Vector" d="M1,2a1.052,1.052,0,0,1-.71-.29A1.052,1.052,0,0,1,0,1,1.052,1.052,0,0,1,.29.289.933.933,0,0,1,.62.079a1,1,0,0,1,1.09.21A1.052,1.052,0,0,1,2,1a1.052,1.052,0,0,1-.29.71l-.15.12a.757.757,0,0,1-.18.09.636.636,0,0,1-.18.06A1.355,1.355,0,0,1,1,2Z" transform="translate(11 13.001)" fill="#f1cc5a"/>
          </g>
          <g id="Group-3" data-name="Group">
            <path id="Vector-6" data-name="Vector" d="M1,2a1.052,1.052,0,0,1-.71-.29A1.052,1.052,0,0,1,0,1,1.052,1.052,0,0,1,.29.29,1.032,1.032,0,0,1,.62.08.956.956,0,0,1,1.2.02a.636.636,0,0,1,.18.06.757.757,0,0,1,.18.09l.15.12A1.052,1.052,0,0,1,2,1a1.052,1.052,0,0,1-.29.71l-.15.12a.757.757,0,0,1-.18.09.636.636,0,0,1-.18.06A1.5,1.5,0,0,1,1,2Z" transform="translate(14.5 13)" fill="#f1cc5a"/>
          </g>
          <g id="Group-4" data-name="Group">
            <path id="Vector-7" data-name="Vector" d="M1,2a1,1,0,0,1-.38-.08,1.032,1.032,0,0,1-.33-.21A1.052,1.052,0,0,1,0,1,1.052,1.052,0,0,1,.29.29,1.032,1.032,0,0,1,.62.08.956.956,0,0,1,1.2.02a.636.636,0,0,1,.18.06.757.757,0,0,1,.18.09l.15.12A1.052,1.052,0,0,1,2,1a1.052,1.052,0,0,1-.29.71,1.576,1.576,0,0,1-.15.12.757.757,0,0,1-.18.09.636.636,0,0,1-.18.06A1.355,1.355,0,0,1,1,2Z" transform="translate(7.5 16.5)" fill="#f1cc5a"/>
          </g>
          <g id="Group-5" data-name="Group">
            <path id="Vector-8" data-name="Vector" d="M1,1.987A1.052,1.052,0,0,1,.29,1.7,1.052,1.052,0,0,1,0,.987,1.052,1.052,0,0,1,.29.278a1.047,1.047,0,0,1,1.42,0A1.052,1.052,0,0,1,2,.987a1.052,1.052,0,0,1-.29.71A1.052,1.052,0,0,1,1,1.987Z" transform="translate(11 16.513)" fill="#f1cc5a"/>
          </g>
          <g id="Group-6" data-name="Group">
            <path id="Vector-9" data-name="Vector" d="M1,1.987A1.052,1.052,0,0,1,.29,1.7,1.052,1.052,0,0,1,0,.987,1.052,1.052,0,0,1,.29.278a1.047,1.047,0,0,1,1.42,0A1.052,1.052,0,0,1,2,.987a1.052,1.052,0,0,1-.29.71A1.052,1.052,0,0,1,1,1.987Z" transform="translate(14.5 16.513)" fill="#f1cc5a"/>
          </g>
        </g>
      </g>
    </g>
  </g>
  <g id="vuesax_bulk_calendar-2" data-name="vuesax/bulk/calendar" transform="translate(9 9)">
    <g id="calendar-2" data-name="calendar">
      <path id="Vector-10" data-name="Vector" d="M0,0H24V24H0Z" fill="none" opacity="0"/>
      <path id="Vector-11" data-name="Vector" d="M13.711,2.31V.75a.75.75,0,0,0-1.5,0v1.5h-6.5V.75a.75.75,0,0,0-1.5,0V2.31A4.248,4.248,0,0,0,0,6.56a.5.5,0,0,0,.5.53h16.92a.5.5,0,0,0,.5-.53A4.248,4.248,0,0,0,13.711,2.31Z" transform="translate(3.039 1.25)" fill="#fff"/>
      <path id="Vector-12" data-name="Vector" d="M17,0a1,1,0,0,1,1,1V7.16c0,3-1.5,5-5,5H5c-3.5,0-5-2-5-5V1A1,1,0,0,1,1,0Z" transform="translate(3 9.84)" fill="#fff" opacity="0.4"/>
      <g id="Group-7" data-name="Group">
        <path id="Vector-13" data-name="Vector" d="M1,2a1.052,1.052,0,0,1-.71-.29A1.052,1.052,0,0,1,0,1,1.052,1.052,0,0,1,.29.289,1,1,0,0,1,1.38.079a.933.933,0,0,1,.33.21A1.052,1.052,0,0,1,2,1a1.052,1.052,0,0,1-.29.71A1.052,1.052,0,0,1,1,2Z" transform="translate(7.5 13.001)" fill="#fff"/>
      </g>
      <g id="Group-8" data-name="Group">
        <path id="Vector-14" data-name="Vector" d="M1,2a1.052,1.052,0,0,1-.71-.29A1.052,1.052,0,0,1,0,1,1.052,1.052,0,0,1,.29.289.933.933,0,0,1,.62.079a1,1,0,0,1,1.09.21A1.052,1.052,0,0,1,2,1a1.052,1.052,0,0,1-.29.71l-.15.12a.757.757,0,0,1-.18.09.636.636,0,0,1-.18.06A1.355,1.355,0,0,1,1,2Z" transform="translate(11 13.001)" fill="#fff"/>
      </g>
      <g id="Group-9" data-name="Group">
        <path id="Vector-15" data-name="Vector" d="M1,2a1.052,1.052,0,0,1-.71-.29A1.052,1.052,0,0,1,0,1,1.052,1.052,0,0,1,.29.29,1.032,1.032,0,0,1,.62.08.956.956,0,0,1,1.2.02a.636.636,0,0,1,.18.06.757.757,0,0,1,.18.09l.15.12A1.052,1.052,0,0,1,2,1a1.052,1.052,0,0,1-.29.71l-.15.12a.757.757,0,0,1-.18.09.636.636,0,0,1-.18.06A1.5,1.5,0,0,1,1,2Z" transform="translate(14.5 13)" fill="#fff"/>
      </g>
      <g id="Group-10" data-name="Group">
        <path id="Vector-16" data-name="Vector" d="M1,2a1,1,0,0,1-.38-.08,1.032,1.032,0,0,1-.33-.21A1.052,1.052,0,0,1,0,1,1.052,1.052,0,0,1,.29.29,1.032,1.032,0,0,1,.62.08.956.956,0,0,1,1.2.02a.636.636,0,0,1,.18.06.757.757,0,0,1,.18.09l.15.12A1.052,1.052,0,0,1,2,1a1.052,1.052,0,0,1-.29.71,1.576,1.576,0,0,1-.15.12.757.757,0,0,1-.18.09.636.636,0,0,1-.18.06A1.355,1.355,0,0,1,1,2Z" transform="translate(7.5 16.5)" fill="#fff"/>
      </g>
      <g id="Group-11" data-name="Group">
        <path id="Vector-17" data-name="Vector" d="M1,1.987A1.052,1.052,0,0,1,.29,1.7,1.052,1.052,0,0,1,0,.987,1.052,1.052,0,0,1,.29.278a1.047,1.047,0,0,1,1.42,0A1.052,1.052,0,0,1,2,.987a1.052,1.052,0,0,1-.29.71A1.052,1.052,0,0,1,1,1.987Z" transform="translate(11 16.513)" fill="#fff"/>
      </g>
      <g id="Group-12" data-name="Group">
        <path id="Vector-18" data-name="Vector" d="M1,1.987A1.052,1.052,0,0,1,.29,1.7,1.052,1.052,0,0,1,0,.987,1.052,1.052,0,0,1,.29.278a1.047,1.047,0,0,1,1.42,0A1.052,1.052,0,0,1,2,.987a1.052,1.052,0,0,1-.29.71A1.052,1.052,0,0,1,1,1.987Z" transform="translate(14.5 16.513)" fill="#fff"/>
      </g>
    </g>
  </g>
</svg>
