<svg id="vuesax_bulk_graph" data-name="vuesax/bulk/graph" xmlns="http://www.w3.org/2000/svg" width="19.881" height="19.881" viewBox="0 0 19.881 19.881">
  <g id="graph">
    <g id="graph-2" data-name="graph" transform="translate(1.659 1.657)">
      <path id="Vector" d="M7.671,4.1A5.784,5.784,0,0,0,3.844.273C2.477-.125,1.532-.092.878.4A2.886,2.886,0,0,0,0,2.8V4.862C0,6.9.928,7.935,2.75,7.935H5.128a2.9,2.9,0,0,0,2.4-.878C8.035,6.411,8.077,5.467,7.671,4.1Z" transform="translate(8.621 0)" fill="#5c7eef"/>
      <path id="Vector-2" data-name="Vector" d="M14.006,7.133a1.133,1.133,0,0,0-.853-.389H10.187A2.644,2.644,0,0,1,7.544,4.1V1.136A1.133,1.133,0,0,0,7.155.283,1.123,1.123,0,0,0,6.269.009a7.234,7.234,0,0,0-4.9,2.924A7.151,7.151,0,0,0,5.8,14.158a6.947,6.947,0,0,0,1.367.133,7.04,7.04,0,0,0,4.183-1.367,7.234,7.234,0,0,0,2.924-4.9A1.114,1.114,0,0,0,14.006,7.133Z" transform="translate(0 2.277)" fill="#5c7eef" opacity="0.4"/>
    </g>
    <path id="Vector-3" data-name="Vector" d="M0,0H19.881V19.881H0Z" fill="none" opacity="0"/>
  </g>
</svg>
