<svg id="Component_429_1" data-name="Component 429 – 1" xmlns="http://www.w3.org/2000/svg" width="31.431" height="31.431" viewBox="0 0 31.431 31.431">
  <g id="Group_10591" data-name="Group 10591" transform="translate(-1193.569 -210)">
    <path id="Path_7353" data-name="Path 7353" d="M15.715,0A15.715,15.715,0,1,1,0,15.715,15.715,15.715,0,0,1,15.715,0Z" transform="translate(1193.569 210)" fill="#f5f6f7"/>
    <g id="calendar_bulk" data-name="calendar/bulk" transform="translate(1199.57 216.001)">
      <g id="vuesax_bulk_calendar" data-name="vuesax/bulk/calendar">
        <g id="calendar">
          <path id="Vector" d="M0,0H19.584V19.584H0Z" fill="none" opacity="0"/>
          <path id="Vector-2" data-name="Vector" d="M11.188,1.885V.612a.612.612,0,0,0-1.224,0V1.836H4.66V.612a.612.612,0,1,0-1.224,0V1.885A3.466,3.466,0,0,0,0,5.353a.41.41,0,0,0,.408.432H14.216a.4.4,0,0,0,.408-.432A3.466,3.466,0,0,0,11.188,1.885Z" transform="translate(2.48 1.02)" fill="#5c7eef"/>
          <path id="Vector-3" data-name="Vector" d="M13.872,0a.818.818,0,0,1,.816.816V5.843c0,2.448-1.224,4.08-4.08,4.08H4.08C1.224,9.923,0,8.291,0,5.843V.816A.818.818,0,0,1,.816,0Z" transform="translate(2.448 8.029)" fill="#5c7eef" opacity="0.4"/>
          <g id="Group" transform="translate(6.12 10.609)">
            <path id="Vector-4" data-name="Vector" d="M.816,1.631a.858.858,0,0,1-.579-.237A.858.858,0,0,1,0,.815.858.858,0,0,1,.237.236.815.815,0,0,1,1.126.064.762.762,0,0,1,1.4.236a.858.858,0,0,1,.237.579.858.858,0,0,1-.237.579A.858.858,0,0,1,.816,1.631Z" fill="#5c7eef"/>
          </g>
          <g id="Group-2" data-name="Group" transform="translate(8.976 10.609)">
            <path id="Vector-5" data-name="Vector" d="M.816,1.631a.858.858,0,0,1-.579-.237A.858.858,0,0,1,0,.815.858.858,0,0,1,.237.236.762.762,0,0,1,.506.064.815.815,0,0,1,1.4.236a.858.858,0,0,1,.237.579.858.858,0,0,1-.237.579l-.122.1a.618.618,0,0,1-.147.073.519.519,0,0,1-.147.049A1.106,1.106,0,0,1,.816,1.631Z" transform="translate(0 0)" fill="#5c7eef"/>
          </g>
          <g id="Group-3" data-name="Group" transform="translate(11.832 10.608)">
            <path id="Vector-6" data-name="Vector" d="M.816,1.632A.858.858,0,0,1,.237,1.4.858.858,0,0,1,0,.816.858.858,0,0,1,.237.237.842.842,0,0,1,.506.065.78.78,0,0,1,.979.016a.519.519,0,0,1,.147.049.618.618,0,0,1,.147.073l.122.1a.858.858,0,0,1,.237.579A.858.858,0,0,1,1.4,1.4l-.122.1a.618.618,0,0,1-.147.073.519.519,0,0,1-.147.049A1.226,1.226,0,0,1,.816,1.632Z" transform="translate(0 0)" fill="#5c7eef"/>
          </g>
          <g id="Group-4" data-name="Group" transform="translate(6.12 13.464)">
            <path id="Vector-7" data-name="Vector" d="M.816,1.632a.812.812,0,0,1-.31-.065A.842.842,0,0,1,.237,1.4.858.858,0,0,1,0,.816.858.858,0,0,1,.237.237.842.842,0,0,1,.506.065.78.78,0,0,1,.979.016a.519.519,0,0,1,.147.049.618.618,0,0,1,.147.073l.122.1a.858.858,0,0,1,.237.579A.858.858,0,0,1,1.4,1.4a1.286,1.286,0,0,1-.122.1.618.618,0,0,1-.147.073.519.519,0,0,1-.147.049A1.106,1.106,0,0,1,.816,1.632Z" transform="translate(0 0)" fill="#5c7eef"/>
          </g>
          <g id="Group-5" data-name="Group" transform="translate(8.976 13.474)">
            <path id="Vector-8" data-name="Vector" d="M.816,1.622a.858.858,0,0,1-.579-.237A.858.858,0,0,1,0,.806.858.858,0,0,1,.237.226.854.854,0,0,1,1.4.226a.858.858,0,0,1,.237.579.858.858,0,0,1-.237.579A.858.858,0,0,1,.816,1.622Z" fill="#5c7eef"/>
          </g>
          <g id="Group-6" data-name="Group" transform="translate(11.832 13.474)">
            <path id="Vector-9" data-name="Vector" d="M.816,1.622a.858.858,0,0,1-.579-.237A.858.858,0,0,1,0,.806.858.858,0,0,1,.237.226.854.854,0,0,1,1.4.226a.858.858,0,0,1,.237.579.858.858,0,0,1-.237.579A.858.858,0,0,1,.816,1.622Z" fill="#5c7eef"/>
          </g>
        </g>
      </g>
    </g>
  </g>
</svg>
