<svg id="vuesax_bulk_house-2" data-name="vuesax/bulk/house-2" xmlns="http://www.w3.org/2000/svg" width="33.345" height="33.345" viewBox="0 0 33.345 33.345">
  <g id="house-2">
    <path id="Vector" d="M0,0H33.345V33.345H0Z" fill="none" opacity="0"/>
    <g id="Group" transform="translate(1.737 29.524)">
      <path id="Vector-2" data-name="Vector" d="M29.871,1.042a1.05,1.05,0,0,1-1.042,1.042H1.042A1.042,1.042,0,0,1,1.042,0H28.829A1.041,1.041,0,0,1,29.871,1.042Z" fill="#5c7eef"/>
    </g>
    <path id="Vector-3" data-name="Vector" d="M25.078,10.347V26.005H0L.069,10.333a2.757,2.757,0,0,1,1.07-2.181L10.865.594a2.755,2.755,0,0,1,3.418,0l9.726,7.558A2.764,2.764,0,0,1,25.078,10.347Z" transform="translate(4.099 3.519)" fill="#5c7eef" opacity="0.4"/>
    <g id="Group-2" data-name="Group" transform="translate(13.546 9.378)">
      <path id="Vector-4" data-name="Vector" d="M5.21,2.084H1.042A1.05,1.05,0,0,1,0,1.042,1.05,1.05,0,0,1,1.042,0H5.21A1.05,1.05,0,0,1,6.252,1.042,1.05,1.05,0,0,1,5.21,2.084Z" fill="#5c7eef"/>
    </g>
    <path id="Vector-5" data-name="Vector" d="M11.81,0H2.084A2.081,2.081,0,0,0,0,2.084v13.2H13.894V2.084A2.081,2.081,0,0,0,11.81,0ZM5.21,9.378a1.042,1.042,0,0,1-2.084,0V7.294a1.042,1.042,0,0,1,2.084,0Z" transform="translate(9.726 15.283)" fill="#5c7eef"/>
  </g>
</svg>
