<svg id="Component_474_1" data-name="Component 474 – 1" xmlns="http://www.w3.org/2000/svg" width="51.517" height="50.414" viewBox="0 0 51.517 50.414">
  <g id="Component_288_35" data-name="Component 288 – 35">
    <path id="Path_6781" data-name="Path 6781" d="M25.758,0C39.984,0,51.517,11.286,51.517,25.207S39.984,50.414,25.758,50.414,0,39.129,0,25.207,11.532,0,25.758,0Z" transform="translate(0)" fill="#aae8ff"/>
  </g>
  <g id="Group_10647" data-name="Group 10647" transform="translate(5.307 7.109)">
    <g id="timer-start_bulk" data-name="timer-start/bulk" transform="translate(2.693 0.891)">
      <g id="vuesax_bulk_timer-start" data-name="vuesax/bulk/timer-start">
        <g id="timer-start">
          <path id="Vector" d="M1.129,9.575A1.125,1.125,0,0,1,0,8.47V1.1a1.129,1.129,0,0,1,2.258,0V8.47A1.125,1.125,0,0,1,1.129,9.575Z" transform="translate(16.934 10.679)" fill="#006fff"/>
          <path id="Vector-2" data-name="Vector" d="M9.784,2.136h-8.7A1.068,1.068,0,0,1,0,1.075,1.08,1.08,0,0,1,1.084,0h8.7a1.068,1.068,0,0,1,1.084,1.061A1.08,1.08,0,0,1,9.784,2.136Z" transform="translate(12.629 2.946)" fill="#006fff"/>
          <path id="Vector-3" data-name="Vector" d="M17.566,22.552V18.221a2.78,2.78,0,0,1,3.056-2.99h4.425a3.481,3.481,0,0,1,.8.088,12.956,12.956,0,0,0,.256-2.548A12.929,12.929,0,0,0,13.05,0,12.929,12.929,0,0,0,0,12.771,12.929,12.929,0,0,0,13.05,25.542a13.23,13.23,0,0,0,5.133-1.031A3.092,3.092,0,0,1,17.566,22.552Z" transform="translate(5.012 6.864)" fill="#006fff" opacity="0.4"/>
          <path id="Vector-4" data-name="Vector" d="M7.481,0H3.056A2.78,2.78,0,0,0,0,2.99V7.321a2.78,2.78,0,0,0,3.056,2.99H7.481a2.78,2.78,0,0,0,3.056-2.99V2.99A2.78,2.78,0,0,0,7.481,0ZM7.06,6.57l-1.776,1a2.151,2.151,0,0,1-1.054.309A1.381,1.381,0,0,1,3.537,7.7a1.683,1.683,0,0,1-.753-1.547v-2a1.683,1.683,0,0,1,.753-1.547,1.755,1.755,0,0,1,1.746.133l1.776,1a1.712,1.712,0,0,1,.993,1.414A1.682,1.682,0,0,1,7.06,6.57Z" transform="translate(22.579 22.095)" fill="#006fff"/>
          <path id="Vector-5" data-name="Vector" d="M0,0H36.126V35.353H0Z" fill="#fff" opacity="0"/>
        </g>
      </g>
    </g>
  </g>
</svg>
