<svg id="Component_466_1" data-name="Component 466 – 1" xmlns="http://www.w3.org/2000/svg" xmlns:xlink="http://www.w3.org/1999/xlink" width="62.474" height="53.222" viewBox="0 0 62.474 53.222">
  <defs>
    <clipPath id="clip-path">
      <rect id="Rectangle_692" data-name="Rectangle 692" width="62.474" height="49.229" fill="none"/>
    </clipPath>
  </defs>
  <ellipse id="Ellipse_5" data-name="Ellipse 5" cx="22.525" cy="22.521" rx="22.525" ry="22.521" transform="translate(9 6.09)" fill="#c6fcc8"/>
  <g id="Group_9006" data-name="Group 9006" transform="translate(0 0)">
    <path id="Path_6997" data-name="Path 6997" d="M2.8,0S-.054,9.174,2.783,17.112c1.086,3.042,2.876,6.809,5.932,9.24a25.052,25.052,0,0,0,21.628,4.9s.008,1.991-4,2.745-6.433-.568-12.753-2.407-4.522-1.306-8.612-6.453S.284,21.229.017,14.971,2.8,0,2.8,0Z" transform="matrix(-0.358, 0.934, -0.934, -0.358, 50.429, 12.261)" fill="#aef4b0"/>
    <g id="Group_9005" data-name="Group 9005" transform="translate(0 3.993)" clip-path="url(#clip-path)">
      <path id="Path_7407" data-name="Path 7407" d="M4.343,0S-.851,11.84,1.948,19.672c1.072,3,6.828,20.961,28.94,15.616a29.45,29.45,0,0,1-6.481,1.933c-3.957.744-5.8-.368-12.036-2.182s-4.85-1.77-8.885-6.847S.275,23.18.011,17.006,4.343,0,4.343,0Z" transform="matrix(0.588, -0.809, 0.809, 0.588, 6.411, 33.27)" fill="#67d86f"/>
      <path id="Path_6994" data-name="Path 6994" d="M58.232,97.15a.753.753,0,0,1,1.009-.085l.239.186a.753.753,0,0,1,.1,1.1,10.408,10.408,0,0,1-15.389.009.755.755,0,0,1,.088-1.105l.241-.188a.742.742,0,0,1,1,.084,8.387,8.387,0,0,0,6.332,2.794,8.486,8.486,0,0,0,6.386-2.792" transform="translate(-20.35 -67.381)" fill="#019619"/>
      <path id="Path_6995" data-name="Path 6995" d="M51.472,58.129a2.544,2.544,0,1,1-5.087.031,2.544,2.544,0,1,1,5.087-.031" transform="translate(-25.292 -37.642)" fill="#019619"/>
      <path id="Path_6996" data-name="Path 6996" d="M104.476,60.695a2.549,2.549,0,1,1,2.6-2.49,2.565,2.565,0,0,1-2.6,2.49" transform="translate(-65.086 -38.798)" fill="#019619"/>
      <circle id="Ellipse_113" data-name="Ellipse 113" cx="23.516" cy="23.516" r="23.516" transform="translate(8.237 0.862)" fill="none"/>
      <path id="Ellipse_113_-_Outline" data-name="Ellipse 113 - Outline" d="M23.612,1.728a21.89,21.89,0,0,0-8.518,42.049A21.89,21.89,0,0,0,32.13,3.447a21.745,21.745,0,0,0-8.518-1.719m0-1.728A23.612,23.612,0,1,1,0,23.612,23.612,23.612,0,0,1,23.612,0Z" transform="translate(8.063 1.055)" fill="none"/>
      <path id="Path_7408" data-name="Path 7408" d="M-1833.614-14153.656l.255-.9v-.559s-.693-.148,0-.548a9.6,9.6,0,0,0,2.487-2.065,11.45,11.45,0,0,0,2.277-4.262,19.2,19.2,0,0,0,.548-7.28.826.826,0,0,1,.744-.9.825.825,0,0,1,.9.743,20.784,20.784,0,0,1-.633,7.987,13.052,13.052,0,0,1-2.661,4.878A9.352,9.352,0,0,1-1833.614-14153.656Z" transform="translate(1887.272 14179.322)" fill="#019619"/>
      <path id="Path_7408-2" data-name="Path 7408" d="M-1827.39-14153.528l.463-1.584h0a6.294,6.294,0,0,1-1.182-.548,9.608,9.608,0,0,1-2.487-2.065,11.447,11.447,0,0,1-2.277-4.262,19.2,19.2,0,0,1-.549-7.28.825.825,0,0,0-.744-.9.824.824,0,0,0-.9.743,20.765,20.765,0,0,0,.633,7.987,13.038,13.038,0,0,0,2.661,4.878A10.26,10.26,0,0,0-1827.39-14153.528Z" transform="translate(1837.243 14179.322)" fill="#019619"/>
      <path id="Ellipse_114" data-name="Ellipse 114" d="M23.133,1.652a21.487,21.487,0,0,0-8.361,41.274A21.487,21.487,0,0,0,31.494,3.34a21.345,21.345,0,0,0-8.361-1.687m0-1.652A23.133,23.133,0,1,1,0,23.133,23.133,23.133,0,0,1,23.133,0Z" transform="translate(8.769 1.533)" fill="#009f0f"/>
    </g>
  </g>
</svg>
