<svg id="Component_472_1" data-name="Component 472 – 1" xmlns="http://www.w3.org/2000/svg" width="50.914" height="49.824" viewBox="0 0 50.914 49.824">
  <g id="Group_11063" data-name="Group 11063" transform="translate(-15 -37)">
    <g id="Component_288_31" data-name="Component 288 – 31" transform="translate(15 37)">
      <path id="Path_6781" data-name="Path 6781" d="M25.457,0C39.516,0,50.914,11.153,50.914,24.912s-11.4,24.912-25.457,24.912S0,38.67,0,24.912,11.4,0,25.457,0Z" fill="#dbd2fe"/>
    </g>
    <g id="vuesax_bulk_calendar" data-name="vuesax/bulk/calendar" transform="translate(22 44)">
      <g id="calendar">
        <path id="Vector" d="M36.528,0H0V35.746H36.528Z" fill="#fff" opacity="0"/>
        <path id="Vector-2" data-name="Vector" d="M6.412,3.441V1.117a1.142,1.142,0,0,1,2.283,0V3.351h9.893V1.117a1.142,1.142,0,0,1,2.283,0V3.441c4.109.372,6.1,2.77,6.408,6.33a.755.755,0,0,1-.761.789H.765A.746.746,0,0,1,0,9.771C.308,6.211,2.3,3.813,6.412,3.441Z" transform="translate(4.623 1.862)" fill="#5c7eef"/>
        <path id="Vector-3" data-name="Vector" d="M1.522,0A1.51,1.51,0,0,0,0,1.489v9.175c0,4.468,2.283,7.447,7.61,7.447H19.786c5.327,0,7.61-2.979,7.61-7.447V1.489A1.51,1.51,0,0,0,25.874,0Z" transform="translate(4.566 14.656)" fill="#5c7eef" opacity="0.4"/>
        <g id="Group" transform="translate(22.069 19.364)">
          <path id="Vector-4" data-name="Vector" d="M1.522,2.977A1.619,1.619,0,0,0,2.6,2.545a1.549,1.549,0,0,0,.441-1.057A1.549,1.549,0,0,0,2.6.43,1.545,1.545,0,0,0,.944.117a1.425,1.425,0,0,0-.5.313A1.549,1.549,0,0,0,0,1.488,1.549,1.549,0,0,0,.441,2.545,1.619,1.619,0,0,0,1.522,2.977Z" transform="translate(0 0)" fill="#5c7eef"/>
        </g>
        <g id="Group-2" data-name="Group" transform="translate(16.742 19.364)">
          <path id="Vector-5" data-name="Vector" d="M1.522,2.977A1.619,1.619,0,0,0,2.6,2.545a1.549,1.549,0,0,0,.441-1.057A1.549,1.549,0,0,0,2.6.43,1.425,1.425,0,0,0,2.1.117,1.545,1.545,0,0,0,.441.43,1.549,1.549,0,0,0,0,1.488,1.549,1.549,0,0,0,.441,2.545l.228.179a1.163,1.163,0,0,0,.274.134.982.982,0,0,0,.274.089A2.106,2.106,0,0,0,1.522,2.977Z" transform="translate(0 0)" fill="#5c7eef"/>
        </g>
        <g id="Group-3" data-name="Group" transform="translate(11.415 19.362)">
          <path id="Vector-6" data-name="Vector" d="M1.522,2.979A1.619,1.619,0,0,0,2.6,2.547a1.549,1.549,0,0,0,.441-1.057A1.549,1.549,0,0,0,2.6.432,1.576,1.576,0,0,0,2.1.119,1.485,1.485,0,0,0,1.218.03.982.982,0,0,0,.944.119,1.163,1.163,0,0,0,.67.253L.441.432A1.549,1.549,0,0,0,0,1.489,1.549,1.549,0,0,0,.441,2.547l.228.179a1.163,1.163,0,0,0,.274.134.982.982,0,0,0,.274.089A2.336,2.336,0,0,0,1.522,2.979Z" transform="translate(0 0)" fill="#5c7eef"/>
        </g>
        <g id="Group-4" data-name="Group" transform="translate(22.069 24.575)">
          <path id="Vector-7" data-name="Vector" d="M1.522,2.979A1.543,1.543,0,0,0,2.1,2.86a1.576,1.576,0,0,0,.5-.313,1.549,1.549,0,0,0,.441-1.057A1.549,1.549,0,0,0,2.6.432,1.576,1.576,0,0,0,2.1.119,1.485,1.485,0,0,0,1.218.03.982.982,0,0,0,.944.119,1.163,1.163,0,0,0,.67.253L.441.432A1.549,1.549,0,0,0,0,1.489,1.549,1.549,0,0,0,.441,2.547a2.39,2.39,0,0,0,.228.179,1.163,1.163,0,0,0,.274.134.982.982,0,0,0,.274.089A2.106,2.106,0,0,0,1.522,2.979Z" transform="translate(0 0)" fill="#5c7eef"/>
        </g>
        <g id="Group-5" data-name="Group" transform="translate(16.742 24.594)">
          <path id="Vector-8" data-name="Vector" d="M1.522,2.96A1.619,1.619,0,0,0,2.6,2.528a1.549,1.549,0,0,0,.441-1.057A1.549,1.549,0,0,0,2.6.413a1.619,1.619,0,0,0-2.161,0A1.549,1.549,0,0,0,0,1.471,1.549,1.549,0,0,0,.441,2.528,1.619,1.619,0,0,0,1.522,2.96Z" transform="translate(0 0)" fill="#5c7eef"/>
        </g>
        <g id="Group-6" data-name="Group" transform="translate(11.415 24.594)">
          <path id="Vector-9" data-name="Vector" d="M1.522,2.96A1.619,1.619,0,0,0,2.6,2.528a1.549,1.549,0,0,0,.441-1.057A1.549,1.549,0,0,0,2.6.413a1.619,1.619,0,0,0-2.161,0A1.549,1.549,0,0,0,0,1.471,1.549,1.549,0,0,0,.441,2.528,1.619,1.619,0,0,0,1.522,2.96Z" transform="translate(0 0)" fill="#5c7eef"/>
        </g>
      </g>
    </g>
  </g>
</svg>
