<svg id="Component_463_1" data-name="Component 463 – 1" xmlns="http://www.w3.org/2000/svg" width="49.823" height="49.824" viewBox="0 0 49.823 49.824">
  <path id="Path_7402" data-name="Path 7402" d="M24.912,0A24.912,24.912,0,1,1,0,24.912,24.912,24.912,0,0,1,24.912,0Z" fill="#f0f2ff"/>
  <g id="vuesax_bulk_calendar" data-name="vuesax/bulk/calendar" transform="translate(12 12)">
    <g id="calendar">
      <path id="Vector" d="M25.791,0H0V25.791H25.791Z" fill="none" opacity="0"/>
      <path id="Vector-2" data-name="Vector" d="M4.527,2.482V.806a.806.806,0,0,1,1.612,0V2.418h6.985V.806a.806.806,0,0,1,1.612,0V2.482A4.565,4.565,0,0,1,19.26,7.05a.54.54,0,0,1-.537.57H.54A.533.533,0,0,1,0,7.05,4.565,4.565,0,0,1,4.527,2.482Z" transform="translate(3.264 1.343)" fill="#5c7eef"/>
      <path id="Vector-3" data-name="Vector" d="M1.075,0A1.078,1.078,0,0,0,0,1.075v6.62c0,3.224,1.612,5.373,5.373,5.373h8.6c3.761,0,5.373-2.149,5.373-5.373V1.075A1.078,1.078,0,0,0,18.269,0Z" transform="translate(3.224 10.574)" fill="#5c7eef" opacity="0.4"/>
      <g id="Group" transform="translate(15.582 13.971)">
        <path id="Vector-4" data-name="Vector" d="M1.075,2.148a1.13,1.13,0,0,0,.763-.312,1.13,1.13,0,0,0,.312-.763A1.13,1.13,0,0,0,1.838.31,1.073,1.073,0,0,0,.666.085,1,1,0,0,0,.312.31,1.13,1.13,0,0,0,0,1.073a1.13,1.13,0,0,0,.312.763A1.13,1.13,0,0,0,1.075,2.148Z" fill="#5c7eef"/>
      </g>
      <g id="Group-2" data-name="Group" transform="translate(11.821 13.971)">
        <path id="Vector-5" data-name="Vector" d="M1.075,2.148a1.13,1.13,0,0,0,.763-.312,1.13,1.13,0,0,0,.312-.763A1.13,1.13,0,0,0,1.838.31,1,1,0,0,0,1.483.085,1.073,1.073,0,0,0,.312.31,1.13,1.13,0,0,0,0,1.073a1.13,1.13,0,0,0,.312.763l.161.129a.814.814,0,0,0,.193.1.683.683,0,0,0,.193.064A1.456,1.456,0,0,0,1.075,2.148Z" transform="translate(0 0)" fill="#5c7eef"/>
      </g>
      <g id="Group-3" data-name="Group" transform="translate(8.06 13.97)">
        <path id="Vector-6" data-name="Vector" d="M1.075,2.149a1.13,1.13,0,0,0,.763-.312,1.13,1.13,0,0,0,.312-.763A1.13,1.13,0,0,0,1.838.312,1.109,1.109,0,0,0,1.483.086,1.027,1.027,0,0,0,.86.021.683.683,0,0,0,.666.086a.814.814,0,0,0-.193.1L.312.312A1.13,1.13,0,0,0,0,1.075a1.13,1.13,0,0,0,.312.763l.161.129a.814.814,0,0,0,.193.1.683.683,0,0,0,.193.064A1.615,1.615,0,0,0,1.075,2.149Z" transform="translate(0 0)" fill="#5c7eef"/>
      </g>
      <g id="Group-4" data-name="Group" transform="translate(15.582 17.731)">
        <path id="Vector-7" data-name="Vector" d="M1.075,2.149a1.07,1.07,0,0,0,.408-.086,1.109,1.109,0,0,0,.355-.226,1.13,1.13,0,0,0,.312-.763A1.13,1.13,0,0,0,1.838.312,1.109,1.109,0,0,0,1.483.086,1.027,1.027,0,0,0,.86.021.683.683,0,0,0,.666.086a.814.814,0,0,0-.193.1L.312.312A1.13,1.13,0,0,0,0,1.075a1.13,1.13,0,0,0,.312.763,1.693,1.693,0,0,0,.161.129.814.814,0,0,0,.193.1.683.683,0,0,0,.193.064A1.456,1.456,0,0,0,1.075,2.149Z" transform="translate(0 0)" fill="#5c7eef"/>
      </g>
      <g id="Group-5" data-name="Group" transform="translate(11.821 17.745)">
        <path id="Vector-8" data-name="Vector" d="M1.075,2.136a1.13,1.13,0,0,0,.763-.312,1.13,1.13,0,0,0,.312-.763A1.13,1.13,0,0,0,1.838.3,1.125,1.125,0,0,0,.312.3,1.13,1.13,0,0,0,0,1.061a1.13,1.13,0,0,0,.312.763A1.13,1.13,0,0,0,1.075,2.136Z" transform="translate(0 0)" fill="#5c7eef"/>
      </g>
      <g id="Group-6" data-name="Group" transform="translate(8.06 17.745)">
        <path id="Vector-9" data-name="Vector" d="M1.075,2.136a1.13,1.13,0,0,0,.763-.312,1.13,1.13,0,0,0,.312-.763A1.13,1.13,0,0,0,1.838.3,1.125,1.125,0,0,0,.312.3,1.13,1.13,0,0,0,0,1.061a1.13,1.13,0,0,0,.312.763A1.13,1.13,0,0,0,1.075,2.136Z" transform="translate(0 0)" fill="#5c7eef"/>
      </g>
    </g>
  </g>
</svg>
