<svg id="Component_476_1" data-name="Component 476 – 1" xmlns="http://www.w3.org/2000/svg" width="50.914" height="49.824" viewBox="0 0 50.914 49.824">
  <g id="Component_288_36" data-name="Component 288 – 36">
    <path id="Path_6781" data-name="Path 6781" d="M25.457,0C39.516,0,50.914,11.153,50.914,24.912s-11.4,24.912-25.457,24.912S0,38.67,0,24.912,11.4,0,25.457,0Z" transform="translate(0)" fill="#ffd8c6"/>
  </g>
  <g id="Group_9727" data-name="Group 9727" transform="translate(8.091 8)">
    <g id="receipt-edit_bulk" data-name="receipt-edit/bulk" transform="translate(-0.092)">
      <g id="vuesax_bulk_receipt-edit" data-name="vuesax/bulk/receipt-edit">
        <g id="receipt-edit">
          <path id="Vector" d="M0,0H34.744V34H0Z" fill="#fff" opacity="0"/>
          <path id="Vector-2" data-name="Vector" d="M5.259,26.538a3,3,0,0,1,4.528.225l1.639,2.025a2.95,2.95,0,0,0,4.755,0l1.639-2.025a3,3,0,0,1,4.528-.225c2.889,2.85,5.242,1.905,5.242-2.085V7.561C27.591,1.515,26.065,0,19.93,0H7.661C1.526,0,0,1.515,0,7.561V24.453C.016,28.444,2.386,29.374,5.259,26.538Z" transform="translate(3.566 2.01)" fill="#ff4416" opacity="0.4"/>
          <g id="Group" transform="translate(13.889 11.393)">
            <path id="Vector-3" data-name="Vector" d="M6.386,2.79l-.511.51h-.01l-3.1,3.03a1.21,1.21,0,0,1-.6.29l-1.38.2a.645.645,0,0,1-.777-.76L.2,4.7a1.3,1.3,0,0,1,.3-.59L3.606,1.08,4.117.57A1.678,1.678,0,0,1,5.241,0,1.657,1.657,0,0,1,6.386.57,1.348,1.348,0,0,1,6.386,2.79Z" fill="#ff4416"/>
          </g>
        </g>
      </g>
    </g>
  </g>
</svg>
