<svg xmlns="http://www.w3.org/2000/svg" width="26.05" height="26.119" viewBox="0 0 26.05 26.119">
  <g id="Component_477_1" data-name="Component 477 – 1" transform="translate(0.05 0.05)">
    <g id="Group_10991" data-name="Group 10991" transform="translate(-828.616 -84.802)">
      <g id="Component_454_3" data-name="Component 454 – 3" transform="translate(828.616 84.802)">
        <path id="Path_397" data-name="Path 397" d="M854.566,92.078v14.137c-.01.013-.027.025-.031.04a2.174,2.174,0,0,1-2.343,1.862H841.2a.783.783,0,0,0-.033.09.305.305,0,0,0-.006.078,1.444,1.444,0,0,1-.913,1.514,6.952,6.952,0,0,1-1.439.559,16.908,16.908,0,0,1-7.707.039,4.645,4.645,0,0,1-1.925-.828,1.389,1.389,0,0,1-.561-1.169q.014-5.228,0-10.457a1.243,1.243,0,0,1,.511-1.082,6.376,6.376,0,0,1,.971-.552c.173-.082.256-.15.255-.37q-.015-3.941-.006-7.882a3.083,3.083,0,0,1,3.127-3.252q8.968-.005,17.936,0a1.333,1.333,0,0,1,1.429,1.488q0,1.826,0,3.652v.276a2.21,2.21,0,0,1,1.583,1.417C854.477,91.781,854.518,91.931,854.566,92.078Zm-23.342,3.829a.385.385,0,0,0,.083.015,1.1,1.1,0,0,0,.151-.019,17.45,17.45,0,0,1,6.447-.087,6.578,6.578,0,0,1,2.508.852,1.523,1.523,0,0,1,.758,1.407c-.02,2.934-.01,5.868-.01,8.8v.343h11.112a1.328,1.328,0,0,0,1.431-1.482q0-2.023,0-4.046v-.3c-.471,0-.908,0-1.346,0a7.97,7.97,0,0,1-1.163-.032,2.244,2.244,0,0,1,.334-4.445c.633-.008,1.267,0,1.9,0h.275c0-1.471,0-2.9,0-4.326a1.335,1.335,0,0,0-1.437-1.5q-9.386,0-18.773,0a3.051,3.051,0,0,1-2.135-.809,1.361,1.361,0,0,0-.133-.092Zm20.739-7.514h-.332l-18.9,0c-.433,0-.644-.145-.651-.446s.206-.452.637-.452l18.925,0h.306a.676.676,0,0,0,.022-.1q0-.512,0-1.025c0-.554-.115-.673-.656-.673H835.763c-.861,0-1.724-.022-2.584.018a2.241,2.241,0,0,0,.317,4.464h18.466ZM835.23,99.157c.417-.032,1.175-.076,1.93-.152a6.054,6.054,0,0,0,1.119-.207,14.254,14.254,0,0,0,1.569-.566c.173-.075.293-.284.437-.432a2.3,2.3,0,0,0-.446-.429,4.444,4.444,0,0,0-.959-.4,15.431,15.431,0,0,0-7.735-.065,6.51,6.51,0,0,0-1.247.491c-.161.077-.274.263-.408.4a2.659,2.659,0,0,0,.419.422,3.256,3.256,0,0,0,.69.319A14.241,14.241,0,0,0,835.23,99.157Zm-5.746-.11c0,.4.024.776-.007,1.149a.624.624,0,0,0,.4.7,12.9,12.9,0,0,0,1.813.628,15.758,15.758,0,0,0,5.137.212,9.374,9.374,0,0,0,2.8-.681c.462-.2.785-.477.667-1.063a1.23,1.23,0,0,1,0-.236c0-.228,0-.457,0-.7A14.992,14.992,0,0,1,829.484,99.047Zm0,5.381c0,.427.016.831-.006,1.232a.526.526,0,0,0,.3.555,7.2,7.2,0,0,0,1.21.517,15.374,15.374,0,0,0,7.348.118,9.2,9.2,0,0,0,1.631-.615.568.568,0,0,0,.308-.373c.038-.467.015-.94.015-1.432a15.186,15.186,0,0,1-10.8,0Zm10.8,2.693a12.192,12.192,0,0,1-5.415.99,12.064,12.064,0,0,1-5.389-1c0,.436.012.847,0,1.258a.493.493,0,0,0,.271.515,7.3,7.3,0,0,0,1.206.525,15.349,15.349,0,0,0,7.392.125,8.8,8.8,0,0,0,1.606-.608.6.6,0,0,0,.318-.394C840.314,108.077,840.288,107.611,840.288,107.121Zm-10.8-5.39c0,.444.014.847-.005,1.248a.509.509,0,0,0,.283.535,7.5,7.5,0,0,0,1.257.534,15.306,15.306,0,0,0,7.468.074,8.532,8.532,0,0,0,1.5-.594.517.517,0,0,0,.282-.336c.033-.475.013-.953.013-1.456a15.09,15.09,0,0,1-10.8-.007Zm24.205-3.924c-.711,0-1.409,0-2.108,0a1.342,1.342,0,0,0,0,2.684c.642.005,1.283,0,1.925,0a1.607,1.607,0,0,0,.187-.021Z" transform="translate(-828.616 -84.802)" fill="#8798ad" stroke="#fff" stroke-width="0.1"/>
        <path id="Path_400" data-name="Path 400" d="M1272.615,349.252a.452.452,0,0,1-.442.455.433.433,0,0,1-.445-.417.441.441,0,0,1,.421-.471A.458.458,0,0,1,1272.615,349.252Z" transform="translate(-1249.349 -334.915)" fill="#8798ad"/>
      </g>
    </g>
  </g>
</svg>
