<svg id="Component_462_1" data-name="Component 462 – 1" xmlns="http://www.w3.org/2000/svg" width="49.823" height="49.824" viewBox="0 0 49.823 49.824">
  <g id="Group_11061" data-name="Group 11061" transform="translate(-441 -454)">
    <path id="Path_7403" data-name="Path 7403" d="M24.912,0A24.912,24.912,0,1,1,0,24.912,24.912,24.912,0,0,1,24.912,0Z" transform="translate(441 454)" fill="#f0f8ff"/>
    <g id="Group_10788" data-name="Group 10788" transform="translate(-875.878 354.813)">
      <g id="Group_9760" data-name="Group 9760" transform="translate(1328.878 111.187)">
        <g id="house-2_bulk" data-name="house-2/bulk" transform="translate(0)">
          <g id="vuesax_bulk_house-2" data-name="vuesax/bulk/house-2">
            <g id="house-2">
              <path id="Vector" d="M0,0H25.345V25.345H0Z" fill="none" opacity="0"/>
              <g id="Group" transform="translate(1.32 22.441)">
                <path id="Vector-2" data-name="Vector" d="M22.7.792a.8.8,0,0,1-.792.792H.792A.792.792,0,0,1,.792,0H21.913A.791.791,0,0,1,22.7.792Z" fill="#5a7cef"/>
              </g>
              <path id="Vector-3" data-name="Vector" d="M19.061,7.865v11.9H0L.053,7.854A2.1,2.1,0,0,1,.866,6.2L8.258.451a2.094,2.094,0,0,1,2.6,0L18.248,6.2A2.1,2.1,0,0,1,19.061,7.865Z" transform="translate(3.115 2.674)" fill="#5a7cef" opacity="0.4"/>
              <g id="Group-2" data-name="Group" transform="translate(10.296 7.128)">
                <path id="Vector-4" data-name="Vector" d="M3.96,1.584H.792A.8.8,0,0,1,0,.792.8.8,0,0,1,.792,0H3.96a.8.8,0,0,1,.792.792A.8.8,0,0,1,3.96,1.584Z" fill="#5a7cef"/>
              </g>
              <path id="Vector-5" data-name="Vector" d="M8.976,0H1.584A1.582,1.582,0,0,0,0,1.584V11.616H10.56V1.584A1.582,1.582,0,0,0,8.976,0ZM3.96,7.128a.792.792,0,0,1-1.584,0V5.544a.792.792,0,0,1,1.584,0Z" transform="translate(7.392 11.616)" fill="#5a7cef"/>
            </g>
          </g>
        </g>
      </g>
    </g>
  </g>
</svg>
