<svg id="Component_473_1" data-name="Component 473 – 1" xmlns="http://www.w3.org/2000/svg" width="50.914" height="49.824" viewBox="0 0 50.914 49.824">
  <g id="Component_288_32" data-name="Component 288 – 32">
    <path id="Path_6781" data-name="Path 6781" d="M25.457,0C39.516,0,50.914,11.153,50.914,24.912s-11.4,24.912-25.457,24.912S0,38.67,0,24.912,11.4,0,25.457,0Z" fill="#b6ebce"/>
  </g>
  <g id="Group_10622" data-name="Group 10622" transform="translate(9 9)">
    <g id="Group_10623" data-name="Group 10623">
      <g id="house-2_bulk" data-name="house-2/bulk">
        <g id="vuesax_bulk_house-2" data-name="vuesax/bulk/house-2">
          <g id="house-2">
            <path id="Vector" d="M0,0H31.982V31.3H0Z" fill="none" opacity="0"/>
            <g id="Group" transform="translate(1.822 27.374)">
              <path id="Vector-2" data-name="Vector" d="M28.337,1.07a1.039,1.039,0,0,1-.989,1.07H.989A1.039,1.039,0,0,1,0,1.07,1.03,1.03,0,0,1,.989,0h26.36A1.03,1.03,0,0,1,28.337,1.07Z" fill="#008e48"/>
            </g>
            <path id="Vector-3" data-name="Vector" d="M23.308,9.454V23.761H0L.065,9.441a2.5,2.5,0,0,1,.994-1.993L10.1.543a2.6,2.6,0,0,1,3.177,0l9.039,6.906A2.51,2.51,0,0,1,23.308,9.454Z" transform="translate(4.301 3.613)" fill="#008e48" opacity="0.4"/>
            <g id="Group-2" data-name="Group" transform="translate(12.711 8.747)">
              <path id="Vector-4" data-name="Vector" d="M5.467,2.14H1.093A1.09,1.09,0,0,1,0,1.07,1.09,1.09,0,0,1,1.093,0H5.467A1.09,1.09,0,0,1,6.56,1.07,1.09,1.09,0,0,1,5.467,2.14Z" fill="#008e48"/>
            </g>
            <path id="Vector-5" data-name="Vector" d="M12.392,0H2.187A2.161,2.161,0,0,0,0,2.14V15.693H14.578V2.14A2.161,2.161,0,0,0,12.392,0ZM5.467,9.63a1.094,1.094,0,0,1-2.187,0V7.49a1.094,1.094,0,0,1,2.187,0Z" transform="translate(8.702 12.751)" fill="#008e48"/>
          </g>
        </g>
      </g>
    </g>
  </g>
</svg>
