<svg xmlns="http://www.w3.org/2000/svg" width="14.639" height="14.646" viewBox="0 0 14.639 14.646">
  <g id="Group_9380" data-name="Group 9380" transform="translate(-16507 17117.143)">
    <g id="brush-square_bulk" data-name="brush-square/bulk" transform="translate(16507 -17117.143)">
      <g id="vuesax_bulk_brush" data-name="vuesax/bulk/brush" transform="translate(0 0)">
        <g id="brush">
          <path id="Vector" d="M10.391,0H4.255A3.908,3.908,0,0,0,0,4.255v6.129a3.91,3.91,0,0,0,4.255,4.262h6.129a3.908,3.908,0,0,0,4.255-4.255V4.255A3.9,3.9,0,0,0,10.391,0Z" transform="translate(0 0)" fill="#5c7eef" opacity="0.4"/>
          <path id="Vector-2" data-name="Vector" d="M7.147,1.135A20.168,20.168,0,0,1,2.966,7.177,3.488,3.488,0,0,0,0,4.277,20.561,20.561,0,0,1,6.071.059a.817.817,0,0,1,.886.183A.8.8,0,0,1,7.147,1.135Z" transform="translate(7.374 0)" fill="#5c7eef"/>
          <path id="Vector-3" data-name="Vector" d="M4.9,2.9a11.284,11.284,0,0,1-.864.769l-1.15.923a2.817,2.817,0,0,1-.454.264c0-.11-.015-.22-.022-.337a2.318,2.318,0,0,0-.681-1.34A2.424,2.424,0,0,0,.351,2.49,2.881,2.881,0,0,0,0,2.475a1.49,1.49,0,0,1,.286-.491L1.2.835A10.809,10.809,0,0,1,1.941,0,3.488,3.488,0,0,1,4.9,2.9Z" transform="translate(5.441 4.269)" fill="#5c7eef" opacity="0.4"/>
          <path id="Vector-4" data-name="Vector" d="M4.943,2.375A2.421,2.421,0,0,1,4.233,4.1a2.39,2.39,0,0,1-1.421.681l-1.435.161A1.248,1.248,0,0,1,.008,3.562L.169,2.127A2.38,2.38,0,0,1,2.512,0a1.909,1.909,0,0,1,.351.015A2.4,2.4,0,0,1,4.24.706a2.34,2.34,0,0,1,.681,1.34C4.929,2.156,4.943,2.266,4.943,2.375Z" transform="translate(2.929 6.756)" fill="#5c7eef"/>
        </g>
      </g>
    </g>
  </g>
</svg>
