<svg id="vuesax_bulk_devices" data-name="vuesax/bulk/devices" xmlns="http://www.w3.org/2000/svg" width="24" height="24" viewBox="0 0 24 24">
  <g id="devices">
    <path id="Vector" d="M0,0H24V24H0Z" fill="none" opacity="0"/>
    <path id="Vector-2" data-name="Vector" d="M14,0H4C.8,0,0,.8,0,4V9.9c.03,3.03.87,3.8,4,3.8H6.25v3.55H2.95a.75.75,0,0,0,0,1.5h7.3a4.418,4.418,0,0,1-.23-1.5H7.75V13.7h2.27V8.59c0-2.14.71-2.85,2.85-2.85h4.28a7.208,7.208,0,0,1,.85.05V4C18,.8,17.2,0,14,0Z" transform="translate(2 2)" fill="#fff" opacity="0.4"/>
    <path id="Vector-3" data-name="Vector" d="M7.98.05A7.208,7.208,0,0,0,7.13,0H2.85C.71,0,0,.71,0,2.85v8.66a4.418,4.418,0,0,0,.23,1.5c.35.91,1.14,1.25,2.62,1.25H7.13c2.14,0,2.85-.71,2.85-2.85V2.85C9.98,1.02,9.46.24,7.98.05ZM4.99,2.35A1.57,1.57,0,1,1,3.42,3.92,1.566,1.566,0,0,1,4.99,2.35Zm0,9.06a2.14,2.14,0,1,1,1.4-3.76,2.172,2.172,0,0,1,.74,1.62A2.142,2.142,0,0,1,4.99,11.41Z" transform="translate(12.02 7.74)" fill="#fff"/>
    <path id="Vector-4" data-name="Vector" d="M4.28,2.14A2.137,2.137,0,1,1,3.54.52,2.172,2.172,0,0,1,4.28,2.14Z" transform="translate(14.87 14.87)" fill="#fff" opacity="0.4"/>
    <path id="Vector-5" data-name="Vector" d="M3.14,1.57A1.57,1.57,0,1,1,1.57,0,1.57,1.57,0,0,1,3.14,1.57Z" transform="translate(15.44 10.09)" fill="#fff" opacity="0.4"/>
  </g>
</svg>
