<svg id="vuesax_bulk_colorfilter" data-name="vuesax/bulk/colorfilter" xmlns="http://www.w3.org/2000/svg" width="28.098" height="28.098" viewBox="0 0 28.098 28.098">
  <g id="colorfilter">
    <path id="Vector" d="M14.049,6.779A7.024,7.024,0,0,1,0,6.779,7.041,7.041,0,0,1,5.175,0,7.046,7.046,0,0,0,9.858,4.191a6.851,6.851,0,0,0,1.85.246,6.851,6.851,0,0,0,1.85-.246A7.016,7.016,0,0,1,14.049,6.779Z" transform="translate(2.341 11.953)" fill="#fff" opacity="0.6"/>
    <path id="Vector-2" data-name="Vector" d="M14.049,7.024A7.019,7.019,0,0,1,8.874,13.8a7.082,7.082,0,0,1-3.7,0,7.025,7.025,0,1,1,8.874-6.779Z" transform="translate(7.024 2.341)" fill="#fff"/>
    <path id="Vector-3" data-name="Vector" d="M11.707,6.779A7.03,7.03,0,0,1,4.683,13.8,6.943,6.943,0,0,1,0,12,6.963,6.963,0,0,0,2.341,6.779,7.016,7.016,0,0,0,1.85,4.191,7.046,7.046,0,0,0,6.533,0,7.041,7.041,0,0,1,11.707,6.779Z" transform="translate(14.049 11.953)" fill="#fff" opacity="0.4"/>
    <path id="Vector-4" data-name="Vector" d="M0,0H28.1V28.1H0Z" fill="none" opacity="0"/>
  </g>
</svg>
