<svg id="Component_372_1" data-name="Component 372 – 1" xmlns="http://www.w3.org/2000/svg" width="23.528" height="54.941" viewBox="0 0 23.528 54.941">
                                <g id="Group_9041" data-name="Group 9041" transform="translate(-916.591 -285.001)">
                                    <path id="Path_7021" data-name="Path 7021" d="M96.169,56.225a48.476,48.476,0,0,1-1.39-6.384c-.248-2.507-.069-5.055-.09-7.585a3.872,3.872,0,0,0-4.112-4.1q-3.968-.007-7.936,0a3.881,3.881,0,0,0-4.18,4.173c-.01,2.324.019,4.648-.014,6.97a12.727,12.727,0,0,1-.255,2.393c-.979,4.724-1.993,9.44-2.99,14.16-.231,1.1.05,1.432,1.171,1.434q1.415,0,2.83,0h2.07c0,2.632-.008,5.161,0,7.69a2.617,2.617,0,0,0,2.765,2.781q2.829.029,5.659,0a2.592,2.592,0,0,0,2.751-2.78c.007-2.3,0-4.6,0-6.9v-.789c1.711,0,3.341-.018,4.968.01a1.307,1.307,0,0,0,1.238-.563v-.552c-.053-.15-.119-.3-.157-.45-.78-3.167-1.571-6.331-2.329-9.5m-4.109,9.4c-1.065,0-1.272.213-1.272,1.3q0,3.934,0,7.869c0,.982-.3,1.292-1.26,1.295q-2.658.01-5.315,0c-.967,0-1.281-.319-1.283-1.285,0-2.669,0-5.338,0-8.007,0-.945-.233-1.176-1.184-1.178-1.562,0-3.125,0-4.791,0,.595-2.831,1.1-5.589,1.764-8.308a43.1,43.1,0,0,0,1.41-12.969c-.045-.733-.019-1.472,0-2.208a2.873,2.873,0,0,1,.142-.876,2.168,2.168,0,0,1,2.137-1.446c2.784-.012,5.568-.017,8.352,0a2.182,2.182,0,0,1,2.26,2.271c.022,1.242.063,2.488,0,3.727a28.969,28.969,0,0,0,1.131,9.26c.912,3.345,1.668,6.733,2.491,10.1.032.129.044.263.075.45-1.575,0-3.114,0-4.653,0" transform="translate(841.465 262.174)" fill="#c258b2"/>
                                    <path id="Path_7022" data-name="Path 7022" d="M87.489,7.636a6.768,6.768,0,1,0,8.4-7.382c-.305-.08-.608-.169-.912-.253H93.457c-.172.049-.342.112-.517.145a6.772,6.772,0,0,0-5.451,7.49m6.723-5.95A5.125,5.125,0,0,1,99.3,6.856,5.111,5.111,0,0,1,89.081,6.83a5.158,5.158,0,0,1,5.131-5.144" transform="translate(834.099 285)" fill="#ca4fa0"/>
                                </g>
                            </svg>