<svg id="dollar-circle" xmlns="http://www.w3.org/2000/svg" width="24" height="24" viewBox="0 0 24 24">
  <g id="Group_576" data-name="Group 576" opacity="0.4">
    <path id="Vector" d="M0,6.99A2.272,2.272,0,0,0,2.22,9.32H4.73A1.988,1.988,0,0,0,6.67,7.29,1.75,1.75,0,0,0,5.35,5.36L1.32,3.96A1.75,1.75,0,0,1,0,2.03,1.988,1.988,0,0,1,1.94,0H4.45A2.272,2.272,0,0,1,6.67,2.33" transform="translate(8.672 7.34)" fill="none" stroke="#1ecb40" stroke-linecap="round" stroke-linejoin="round" stroke-width="1.5"/>
    <path id="Vector-2" data-name="Vector" d="M0,0V12" transform="translate(12 6)" fill="none" stroke="#1ecb40" stroke-linecap="round" stroke-linejoin="round" stroke-width="1.5"/>
  </g>
  
  <path id="Vector-3" data-name="Vector" d="M20,10A10,10,0,1,1,10,0,10,10,0,0,1,20,10Z" transform="translate(2 2)" fill="none" stroke="#1ecb40" stroke-linecap="round" stroke-linejoin="round" stroke-width="1.5"/>
  <path id="Vector-4" data-name="Vector" d="M0,0H24V24H0Z" fill="none" opacity="0"/>
</svg>
