<svg id="vuesax_bulk_receipt-edit" data-name="vuesax/bulk/receipt-edit" xmlns="http://www.w3.org/2000/svg" width="19.61" height="19.19" viewBox="0 0 19.61 19.19">
  <g id="receipt-edit">
    <path id="Vector" d="M0,0H19.61V19.19H0Z" fill="#8798ad" opacity="0"/>
    <path id="Vector-2" data-name="Vector" d="M2.968,14.978a1.691,1.691,0,0,1,2.556.127l.925,1.143a1.665,1.665,0,0,0,2.684,0l.925-1.143a1.691,1.691,0,0,1,2.556-.127c1.631,1.609,2.959,1.075,2.959-1.177V4.267C15.573.855,14.712,0,11.249,0H4.324C.861,0,0,.855,0,4.267V13.8C.009,16.054,1.347,16.579,2.968,14.978Z" transform="translate(2.013 1.134)" fill="#8798ad" opacity="0.4"/>
    <g id="Group" transform="translate(7.839 6.43)">
      <path id="Vector-3" data-name="Vector" d="M3.6,1.575l-.288.288H3.31L1.563,3.573a.683.683,0,0,1-.34.164l-.779.113A.364.364,0,0,1,.005,3.42l.11-.768A.733.733,0,0,1,.282,2.32L2.035.61,2.324.322A.947.947,0,0,1,2.958,0,.935.935,0,0,1,3.6.322.761.761,0,0,1,3.6,1.575Z" transform="translate(0)" fill="#8798ad"/>
    </g>
  </g>
</svg>
