<svg id="Component_371_1" data-name="Component 371 – 1" xmlns="http://www.w3.org/2000/svg" width="21.087" height="55.399" viewBox="0 0 21.087 55.399">
        <path id="Path_7018" data-name="Path 7018" d="M9.435,7.874A6.876,6.876,0,1,0,18.318.361C17.854.214,17.374.119,16.9,0H15.5c-.175.049-.348.113-.527.146A6.882,6.882,0,0,0,9.435,7.874m6.752-6.161a5.191,5.191,0,1,1-5.152,5.215,5.2,5.2,0,0,1,5.152-5.215" transform="translate(-5.686)" fill="#4c66c2"/>
        <path id="Path_7019" data-name="Path 7019" d="M21.423,48.218q0-2.979,0-5.958c0-.047,0-.093,0-.14a3.911,3.911,0,0,0-4.02-3.969q-6.519-.017-13.037,0a3.919,3.919,0,0,0-4,3.992C.34,46.232.355,50.321.353,54.409a2.745,2.745,0,0,0,.876,2.066c.574.55,1.129,1.12,1.726,1.643a3.493,3.493,0,0,1,1.173,2.453q.692,7.464,1.428,14.924a2.619,2.619,0,0,0,2.719,2.475q2.628.021,5.257,0a2.58,2.58,0,0,0,2.674-2.428c.474-4.787.963-9.573,1.383-14.365a4.376,4.376,0,0,1,1.616-3.411c.388-.294.695-.695,1.07-1.008a3.2,3.2,0,0,0,1.16-2.72q-.017-.727-.02-1.454c-.01-1.454.008-2.909.008-4.364m-2.251,7.255c-.4.353-.751.774-1.17,1.108a5.769,5.769,0,0,0-2.086,4.333c-.383,4.585-.855,9.162-1.292,13.742-.02.209-.064.416-.08.625a.976.976,0,0,1-1.1,1c-1.706,0-3.412.009-5.117,0a.973.973,0,0,1-1.093-1.017c-.478-4.9-.968-9.808-1.411-14.716A4.715,4.715,0,0,0,4.06,56.88a4.979,4.979,0,0,1-2.066-4.81c.167-3.193.042-6.4.045-9.6a2.323,2.323,0,0,1,2.619-2.637q3.12-.006,6.239,0c2.1,0,4.206,0,6.309,0a2.268,2.268,0,0,1,2.52,2.509c.008,3.949,0,7.9.012,11.848a1.565,1.565,0,0,1-.567,1.284" transform="translate(-0.349 -22.582)" fill="#4c66c2"/>
    </svg>