<svg id="vuesax_bulk_paintbucket" data-name="vuesax/bulk/paintbucket" xmlns="http://www.w3.org/2000/svg" width="24" height="24" viewBox="0 0 24 24">
  <g id="paintbucket">
    <path id="Vector" d="M18.108,5.471l-3.52-3.52c-3.16-3.15-4.82-1.99-6.82,0l-5.66,5.66A6.877,6.877,0,0,0,.1,10.321a.01.01,0,0,1-.01.01v.05c-.41,1.46.67,2.7,2.02,4.05l3.53,3.51C6.9,19.211,7.918,20,9.048,20s2.1-.76,3.4-2.06l5.66-5.65a11.366,11.366,0,0,0,1.13-1.3v-.01h.01C20.528,9.191,20.188,7.541,18.108,5.471Zm.04,2.45a.993.993,0,0,1-1.08,1.45c-.31-.07-.61-.13-.92-.19-.02,0-.04-.01-.07-.01q-1.05-.2-2.13-.33h-.04c-.72-.09-1.45-.16-2.18-.2h-.08c-.64-.04-1.29-.06-1.93-.06-.78,0-1.56.04-2.33.09l-.37.03c-.58.04-1.16.1-1.73.17l-.46.06c-.58.09-1.15.18-1.72.29-.13.03-.25.05-.38.07l-.16.03c.18-.2.39-.41.62-.64l5.65-5.65c1.82-1.8,2.44-2.23,4.68,0l3.51,3.52A6.476,6.476,0,0,1,18.148,7.921Z" transform="translate(1.002 1.999)" fill="#8f9fae" opacity="0.4"/>
    <path id="Vector-2" data-name="Vector" d="M15.58,6.406a.993.993,0,0,1-1.08,1.45c-.31-.07-.61-.13-.92-.19-.02,0-.04-.01-.07-.01q-1.05-.2-2.13-.33h-.04c-.72-.09-1.45-.16-2.18-.2H9.08c-.64-.04-1.29-.06-1.93-.06-.78,0-1.56.04-2.33.09l-.37.03c-.58.04-1.16.1-1.73.17l-.46.06c-.58.09-1.15.18-1.72.29-.13.03-.25.05-.38.07L0,7.806c.18-.2.39-.41.62-.64l5.65-5.65c1.82-1.8,2.44-2.23,4.68,0l3.51,3.52A6.476,6.476,0,0,1,15.58,6.406Z" transform="translate(3.57 3.514)" fill="#8f9fae"/>
    <path id="Vector-3" data-name="Vector" d="M3.946.87A1.729,1.729,0,0,0,2.5,0a1.7,1.7,0,0,0-1.44.87A4.139,4.139,0,0,0,.026,3.98,2.365,2.365,0,0,0,2.5,6a2.365,2.365,0,0,0,2.47-2.03A4.106,4.106,0,0,0,3.946.87Z" transform="translate(17.004 16)" fill="#8f9fae"/>
    <path id="Vector-4" data-name="Vector" d="M0,0H24V24H0Z" fill="none" opacity="0"/>
  </g>
</svg>
